<?xml version="1.0" encoding="UTF-8"?> <svg xmlns="http://www.w3.org/2000/svg" width="650" height="550" viewBox="0 0 650 550" fill="none"><g clip-path="url(#clip0_2915_470)"><g opacity="0.4"><path opacity="0.4" d="M38.6766 106.363C44.5732 106.363 49.3532 101.581 49.3532 95.6817C49.3532 89.7823 44.5732 85 38.6766 85C32.7801 85 28 89.7823 28 95.6817C28 101.581 32.7801 106.363 38.6766 106.363Z" fill="#262F63"></path><path d="M40.2029 93.4434C39.895 92.774 39.3888 92.3723 38.6374 92.2576C38.439 92.2289 38.2355 92.2241 38.0372 92.2241C37.244 92.2193 36.456 92.2241 35.6628 92.2193C35.2871 92.2193 35.0001 91.9563 35.0001 91.6168C34.9949 91.2678 35.2819 91 35.668 91C37.8911 91 40.1142 91 42.332 91C42.7182 91 43 91.2678 43 91.6168C42.9948 91.9515 42.713 92.2145 42.3373 92.2193C41.9041 92.2241 41.4658 92.2193 41.0483 92.2193C41.2466 92.621 41.4449 93.0131 41.6589 93.4434C41.8415 93.4434 42.0763 93.4434 42.3112 93.4434C42.713 93.4482 43 93.7064 43 94.0602C42.9948 94.4045 42.7078 94.6579 42.3164 94.6627C42.0815 94.6627 41.8467 94.6627 41.6275 94.6627C40.9752 96.6519 39.4306 97.283 37.2701 97.0822C37.3693 97.1826 37.4162 97.2304 37.4684 97.2783C38.7835 98.4832 40.0985 99.6882 41.4136 100.898C41.7267 101.185 41.7528 101.534 41.4971 101.797C41.2518 102.041 40.8604 102.069 40.5786 101.859C40.5317 101.821 40.4847 101.783 40.4429 101.739C38.7208 100.162 36.9935 98.5836 35.2766 96.9961C35.1566 96.8862 35.047 96.7284 35.0157 96.5801C34.9374 96.212 35.2558 95.8868 35.668 95.8868C36.5239 95.882 37.3745 95.8868 38.2303 95.8868C39.0079 95.882 39.6236 95.5999 40.0411 94.9831C40.0829 94.9257 40.109 94.8588 40.1455 94.7966C40.1611 94.7631 40.1768 94.7249 40.1977 94.6675C40.1037 94.6675 40.0307 94.6675 39.9576 94.6675C38.5278 94.6675 37.0979 94.6675 35.668 94.6675C35.3393 94.6675 35.0575 94.4475 35.0105 94.1606C34.9583 93.8498 35.1566 93.5582 35.4906 93.4721C35.5741 93.4482 35.668 93.4482 35.7567 93.4482C37.1501 93.4482 38.5486 93.4482 39.942 93.4482C40.015 93.4434 40.0881 93.4434 40.2029 93.4434Z" fill="white"></path><path opacity="0.4" d="M328.506 58.0271C337.07 58.0271 344.012 51.0815 344.012 42.5136C344.012 33.9457 337.07 27 328.506 27C319.942 27 313 33.9457 313 42.5136C313 51.0815 319.942 58.0271 328.506 58.0271Z" fill="url(#paint0_linear_2915_470)"></path><path d="M330.804 38.7762C330.343 37.7416 329.583 37.1209 328.456 36.9435C328.159 36.8992 327.853 36.8918 327.556 36.8918C326.366 36.8844 325.184 36.8918 323.994 36.8844C323.431 36.8844 323 36.478 323 35.9533C322.992 35.4138 323.423 35 324.002 35C327.337 35 330.671 35 333.998 35C334.577 35 335 35.4138 335 35.9533C334.992 36.4706 334.569 36.877 334.006 36.8844C333.356 36.8918 332.699 36.8844 332.072 36.8844C332.37 37.5051 332.667 38.1111 332.988 38.7762C333.262 38.7762 333.614 38.7762 333.967 38.7762C334.569 38.7836 335 39.1826 335 39.7294C334.992 40.2615 334.562 40.6532 333.975 40.6606C333.622 40.6606 333.27 40.6606 332.941 40.6606C331.963 43.7347 329.646 44.7101 326.405 44.3998C326.554 44.555 326.624 44.6289 326.703 44.7028C328.675 46.565 330.648 48.4272 332.62 50.2968C333.09 50.7402 333.129 51.2796 332.746 51.6861C332.378 52.063 331.791 52.1073 331.368 51.7821C331.297 51.723 331.227 51.6639 331.164 51.5974C328.581 49.1588 325.99 46.7202 323.415 44.2668C323.235 44.0968 323.071 43.8529 323.024 43.6238C322.906 43.0548 323.384 42.5523 324.002 42.5523C325.286 42.5449 326.562 42.5523 327.845 42.5523C329.012 42.5449 329.935 42.1089 330.562 41.1557C330.624 41.067 330.663 40.9635 330.718 40.8675C330.742 40.8157 330.765 40.7566 330.797 40.6679C330.656 40.6679 330.546 40.6679 330.436 40.6679C328.292 40.6679 326.147 40.6679 324.002 40.6679C323.509 40.6679 323.086 40.328 323.016 39.8846C322.937 39.4043 323.235 38.9535 323.736 38.8205C323.861 38.7836 324.002 38.7836 324.135 38.7836C326.225 38.7836 328.323 38.7836 330.413 38.7836C330.523 38.7762 330.632 38.7762 330.804 38.7762Z" fill="white"></path><path opacity="0.4" d="M589.492 339.013C606.332 339.013 619.984 325.355 619.984 308.506C619.984 291.658 606.332 278 589.492 278C572.652 278 559 291.658 559 308.506C559 325.355 572.652 339.013 589.492 339.013Z" fill="url(#paint1_linear_2915_470)"></path><path d="M593.21 298.885C592.133 296.451 590.361 294.99 587.731 294.573C587.037 294.469 586.324 294.451 585.63 294.451C582.854 294.434 580.096 294.451 577.32 294.434C576.005 294.434 575 293.478 575 292.243C574.982 290.974 575.987 290 577.338 290C585.119 290 592.9 290 600.662 290C602.014 290 603 290.974 603 292.243C602.982 293.46 601.995 294.416 600.68 294.434C599.164 294.451 597.63 294.434 596.169 294.434C596.863 295.894 597.557 297.32 598.306 298.885C598.945 298.885 599.767 298.885 600.589 298.885C601.995 298.902 603 299.841 603 301.128C602.982 302.38 601.977 303.302 600.607 303.319C599.785 303.319 598.964 303.319 598.196 303.319C595.913 310.552 590.507 312.847 582.945 312.117C583.292 312.482 583.457 312.656 583.639 312.83C588.242 317.212 592.845 321.593 597.448 325.992C598.543 327.036 598.635 328.305 597.74 329.261C596.881 330.148 595.511 330.252 594.525 329.487C594.361 329.348 594.196 329.209 594.05 329.053C588.023 323.315 581.977 317.577 575.968 311.804C575.548 311.404 575.165 310.83 575.055 310.291C574.781 308.953 575.895 307.77 577.338 307.77C580.334 307.753 583.311 307.77 586.306 307.77C589.028 307.753 591.183 306.727 592.644 304.484C592.79 304.275 592.881 304.032 593.009 303.806C593.064 303.684 593.119 303.545 593.192 303.336C592.863 303.336 592.607 303.336 592.352 303.336C587.347 303.336 582.343 303.336 577.338 303.336C576.187 303.336 575.201 302.537 575.037 301.493C574.854 300.363 575.548 299.302 576.717 298.989C577.009 298.902 577.338 298.902 577.649 298.902C582.525 298.902 587.42 298.902 592.297 298.902C592.553 298.885 592.808 298.885 593.21 298.885Z" fill="white"></path><path d="M392.104 108.663C393.494 108.663 394.884 108.663 396.275 108.663C398.804 108.663 401.333 108.663 403.862 108.663C405.078 108.663 406.294 108.663 407.51 108.663C408.717 108.663 409.725 107.655 409.725 106.448C409.725 105.24 408.717 104.232 407.51 104.232C406.12 104.232 404.729 104.232 403.339 104.232C400.81 104.232 398.281 104.232 395.752 104.232C394.536 104.232 393.32 104.232 392.104 104.232C390.896 104.232 389.889 105.24 389.889 106.448C389.889 107.655 390.896 108.663 392.104 108.663Z" fill="#E0E7FC"></path></g><rect x="64" y="49" width="521" height="285" rx="4" fill="#262F63"></rect><rect x="68" y="54" width="513" height="274" fill="url(#paint2_linear_2915_470)"></rect><line x1="110.5" y1="93" x2="110.5" y2="295" stroke="#262F63"></line><line x1="533" y1="295.5" x2="111" y2="295.5" stroke="#262F63"></line><path opacity="0.2" d="M313.428 509.317C464.23 526.489 606.361 509.317 609 472.153C609 457.709 483.757 446 329.262 446C174.767 446 45 457.709 45 472.153C45 486.596 184.492 494.634 313.428 509.317Z" fill="black"></path><path d="M131.543 219.104L221.258 270.863L395.511 141.467L440.368 169.071L505.929 112.137" stroke="#5982BE" stroke-width="6"></path><circle cx="218.053" cy="268.925" r="6.33798" fill="#5B84C0"></circle><circle cx="394.031" cy="140.394" r="6.33798" fill="#262F63"></circle><circle cx="438.891" cy="167.997" r="6.33798" fill="#262F63"></circle><circle cx="507.899" cy="109.338" r="6.33798" fill="#262F63"></circle><circle cx="128.338" cy="217.164" r="6.33798" fill="#262F63"></circle><rect x="57.4805" y="386.342" width="10.3078" height="71.693" stroke="white"></rect><rect x="75.25" y="413.805" width="10.3078" height="44.2312" stroke="white"></rect><rect x="93.0195" y="375.034" width="10.3078" height="83.0008" stroke="white"></rect><rect x="110.787" y="357.265" width="10.3078" height="100.77" stroke="white"></rect><path opacity="0.2" fill-rule="evenodd" clip-rule="evenodd" d="M581.994 114.143C580.244 114.334 578.467 114.431 576.667 114.431C549.789 114.431 528 92.6422 528 65.7641C528 59.873 529.047 54.2263 530.964 49H563.004C573.492 49 581.994 57.5019 581.994 67.9896V114.143Z" fill="#2D26CF"></path><path opacity="0.1" d="M557.597 122.967C585.045 122.967 607.296 100.706 607.296 73.2448C607.296 45.7839 585.045 23.5225 557.597 23.5225C530.149 23.5225 507.898 45.7839 507.898 73.2448C507.898 100.706 530.149 122.967 557.597 122.967Z" fill="black"></path><path d="M563.699 115.445C591.147 115.445 613.398 93.1832 613.398 65.7223C613.398 38.2615 591.147 16 563.699 16C536.251 16 514 38.2615 514 65.7223C514 93.1832 536.251 115.445 563.699 115.445Z" fill="white"></path><path d="M569.413 52.3285C568.028 49.2248 565.75 47.3626 562.368 46.8305C561.476 46.6975 560.56 46.6753 559.668 46.6753C556.098 46.6532 552.552 46.6753 548.983 46.6532C547.292 46.6532 546 45.4339 546 43.8598C545.977 42.2415 547.268 41 549.006 41C559.01 41 569.014 41 578.994 41C580.732 41 582 42.2415 582 43.8598C581.977 45.4117 580.708 46.631 579.018 46.6532C577.069 46.6753 575.096 46.6532 573.217 46.6532C574.11 48.5154 575.002 50.3333 575.965 52.3285C576.787 52.3285 577.843 52.3285 578.9 52.3285C580.708 52.3507 582 53.5478 582 55.1883C581.977 56.7845 580.685 57.9595 578.924 57.9817C577.867 57.9817 576.81 57.9817 575.824 57.9817C572.889 67.2041 565.938 70.1304 556.215 69.1993C556.662 69.6649 556.873 69.8866 557.108 70.1083C563.026 75.6949 568.943 81.2816 574.861 86.8904C576.27 88.2206 576.388 89.8389 575.237 91.0582C574.133 92.1889 572.372 92.3219 571.104 91.3464C570.892 91.1691 570.681 90.9917 570.493 90.7922C562.744 83.4763 554.971 76.1605 547.245 68.8003C546.705 68.2904 546.212 67.5588 546.071 66.8716C545.719 65.1645 547.151 63.657 549.006 63.657C552.857 63.6348 556.685 63.657 560.536 63.657C564.035 63.6348 566.806 62.3268 568.685 59.467C568.873 59.201 568.99 58.8906 569.155 58.6024C569.225 58.4472 569.296 58.2699 569.39 58.0038C568.967 58.0038 568.638 58.0038 568.309 58.0038C561.875 58.0038 555.441 58.0038 549.006 58.0038C547.527 58.0038 546.259 56.9841 546.047 55.6539C545.812 54.2129 546.705 52.8606 548.208 52.4615C548.583 52.3507 549.006 52.3507 549.405 52.3507C555.675 52.3507 561.969 52.3507 568.239 52.3507C568.568 52.3285 568.896 52.3285 569.413 52.3285Z" fill="#71BEB5"></path><path d="M623.291 66.3019C623.291 92.542 602.02 113.814 575.779 113.814C549.539 113.814 528.268 92.542 528.268 66.3019C528.268 40.0618 549.539 18.79 575.779 18.79C602.02 18.79 623.291 40.0618 623.291 66.3019Z" stroke="white" stroke-width="1.22254"></path><rect x="339" y="416" width="89" height="15" rx="3" fill="url(#paint3_linear_2915_470)"></rect><rect x="455" y="416" width="89" height="15" rx="3" fill="url(#paint4_linear_2915_470)"></rect><rect x="442" y="386" width="89" height="15" rx="3" fill="url(#paint5_linear_2915_470)"></rect><rect x="334" y="431" width="89" height="15" rx="3" fill="url(#paint6_linear_2915_470)"></rect><rect x="450" y="431" width="89" height="15" rx="3" fill="url(#paint7_linear_2915_470)"></rect><rect x="437" y="401" width="89" height="15" rx="3" fill="url(#paint8_linear_2915_470)"></rect><rect x="339" y="446" width="89" height="15" rx="3" fill="url(#paint9_linear_2915_470)"></rect><rect x="455" y="446" width="89" height="15" rx="3" fill="url(#paint10_linear_2915_470)"></rect><path fill-rule="evenodd" clip-rule="evenodd" d="M546.588 331.75L475.91 362.723L479.515 370.948L479.516 370.948C479.516 370.948 479.517 370.949 479.517 370.95C481.065 374.483 498.142 370.414 517.659 361.861C537.176 353.308 551.743 343.51 550.194 339.977C550.187 339.959 550.178 339.941 550.17 339.924L546.588 331.75Z" fill="#E8A341"></path><ellipse cx="511.254" cy="347.236" rx="38.5831" ry="6.98487" transform="rotate(-23.6645 511.254 347.236)" fill="#F3BF75"></ellipse><ellipse cx="511.252" cy="347.236" rx="33.2613" ry="5.98703" transform="rotate(-23.6645 511.252 347.236)" fill="#E8A341"></ellipse><ellipse cx="511.657" cy="348.15" rx="31.9309" ry="4.9892" transform="rotate(-23.6645 511.657 348.15)" fill="#F3BF75"></ellipse><path fill-rule="evenodd" clip-rule="evenodd" d="M496.061 348.484L431.857 305.676L426.875 313.148L426.876 313.148C426.875 313.148 426.875 313.149 426.875 313.15C424.735 316.359 437.372 328.544 455.102 340.365C472.831 352.186 488.938 359.167 491.078 355.958C491.084 355.949 491.09 355.94 491.095 355.932L496.061 348.484Z" fill="#E8A341"></path><ellipse cx="463.961" cy="327.081" rx="38.5831" ry="6.98487" transform="rotate(33.6935 463.961 327.081)" fill="#F3BF75"></ellipse><ellipse cx="463.964" cy="327.081" rx="33.2613" ry="5.98703" transform="rotate(33.6935 463.964 327.081)" fill="#E8A341"></ellipse><ellipse cx="463.411" cy="327.913" rx="31.9309" ry="4.9892" transform="rotate(33.6935 463.411 327.913)" fill="#F3BF75"></ellipse><path fill-rule="evenodd" clip-rule="evenodd" d="M458.105 264.653C457.898 264.518 457.713 264.359 457.552 264.177C453.94 260.073 463.779 245.506 479.528 231.641C495.206 217.839 510.831 209.934 514.536 213.91L514.637 213.819L523.172 223.477L466.115 273.624L458.04 264.712L458.105 264.653Z" fill="#F3BF75"></path><ellipse cx="494.293" cy="248.291" rx="37.9936" ry="9.899" transform="rotate(-41.3598 494.293 248.291)" fill="#E8A341"></ellipse><path d="M358.55 461.396C358.55 461.396 346.846 466.33 320.535 468.405C306.132 469.527 287.347 469.784 263.706 467.887C196.884 473.252 168.861 461.396 168.861 461.396C117.033 408.473 177.499 295.081 199.095 268.073C209.077 255.597 223.664 250.503 236.471 248.626C245.503 247.331 254.672 247.323 263.706 248.602C272.741 247.323 281.912 247.331 290.945 248.626C297.755 249.622 305.073 251.528 311.926 254.982C318.275 258.101 323.867 262.569 328.312 268.073C349.912 295.081 410.379 408.473 358.55 461.396Z" fill="url(#paint11_linear_2915_470)"></path><path d="M315.175 181.765C315.175 181.765 309.812 156.098 265.442 178.409C221.073 200.72 305.126 195.667 305.126 195.667C305.126 195.667 315.721 189.258 315.175 181.765Z" fill="#4FA39A"></path><path d="M228.337 222.118C228.337 222.118 198.59 189.211 214.823 174.611C227.557 163.17 264.415 177.998 279.728 184.904C286.328 187.92 293.496 189.498 300.755 189.53C307.89 189.53 315.059 188.112 315.195 182.441C315.195 182.441 315.68 207.504 297.178 222.123C278.676 236.743 228.337 222.118 228.337 222.118Z" fill="url(#paint12_linear_2915_470)"></path><path d="M262.586 227.651C262.586 227.651 284.852 220.096 291.689 205.113C291.689 205.113 291.415 219.55 280.75 225.27C270.085 230.99 262.586 227.651 262.586 227.651Z" fill="#4FA39A"></path><path d="M297.606 221.903H228.686C225.153 221.903 222.289 224.695 222.289 228.139V229.1C222.289 232.544 225.153 235.336 228.686 235.336H297.606C301.138 235.336 304.002 232.544 304.002 229.1V228.139C304.002 224.695 301.138 221.903 297.606 221.903Z" fill="#262F63"></path><path d="M206.619 452.491C206.619 452.491 266.829 485.232 320.793 452.491C320.793 452.491 264.145 462.368 206.619 452.491Z" fill="#4FA39A"></path><path d="M229.006 196.158C229.006 196.158 233.035 218.552 249.154 221.903C249.154 221.903 231.427 206.083 229.006 196.158Z" fill="#4FA39A"></path><path d="M179.402 358.465C179.402 358.465 171.995 402.72 203.263 414.433C203.263 414.433 177.756 382.648 179.402 358.465Z" fill="#4FA39A"></path><path opacity="0.34" d="M258.669 366.3C280.615 366.3 298.406 348.51 298.406 326.563C298.406 304.617 280.615 286.826 258.669 286.826C236.723 286.826 218.932 304.617 218.932 326.563C218.932 348.51 236.723 366.3 258.669 366.3Z" fill="#0A0A0A"></path><path d="M297.608 235.336H228.683C225.152 235.336 222.289 238.092 222.289 241.492C222.289 244.893 225.152 247.649 228.683 247.649H297.608C301.139 247.649 304.002 244.893 304.002 241.492C304.002 238.092 301.139 235.336 297.608 235.336Z" fill="#262F63"></path><path d="M263.297 361.594C285.552 361.594 303.594 343.552 303.594 321.297C303.594 299.041 285.552 281 263.297 281C241.041 281 223 299.041 223 321.297C223 343.552 241.041 361.594 263.297 361.594Z" fill="#EBF2FC"></path><path d="M269.413 308.329C268.028 305.225 265.75 303.363 262.368 302.831C261.476 302.698 260.56 302.675 259.668 302.675C256.098 302.653 252.552 302.675 248.983 302.653C247.292 302.653 246 301.434 246 299.86C245.977 298.241 247.268 297 249.006 297C259.01 297 269.014 297 278.994 297C280.732 297 282 298.241 282 299.86C281.977 301.412 280.708 302.631 279.018 302.653C277.069 302.675 275.096 302.653 273.217 302.653C274.11 304.515 275.002 306.333 275.965 308.329C276.787 308.329 277.843 308.329 278.9 308.329C280.708 308.351 282 309.548 282 311.188C281.977 312.785 280.685 313.959 278.924 313.982C277.867 313.982 276.81 313.982 275.824 313.982C272.889 323.204 265.938 326.13 256.215 325.199C256.662 325.665 256.873 325.887 257.108 326.108C263.026 331.695 268.943 337.282 274.861 342.89C276.27 344.221 276.388 345.839 275.237 347.058C274.133 348.189 272.372 348.322 271.104 347.346C270.892 347.169 270.681 346.992 270.493 346.792C262.744 339.476 254.971 332.16 247.245 324.8C246.705 324.29 246.212 323.559 246.071 322.872C245.719 321.165 247.151 319.657 249.006 319.657C252.857 319.635 256.685 319.657 260.536 319.657C264.035 319.635 266.806 318.327 268.685 315.467C268.873 315.201 268.99 314.891 269.155 314.602C269.225 314.447 269.296 314.27 269.39 314.004C268.967 314.004 268.638 314.004 268.309 314.004C261.875 314.004 255.441 314.004 249.006 314.004C247.527 314.004 246.259 312.984 246.047 311.654C245.812 310.213 246.705 308.861 248.208 308.462C248.583 308.351 249.006 308.351 249.405 308.351C255.675 308.351 261.969 308.351 268.239 308.351C268.568 308.329 268.896 308.329 269.413 308.329Z" fill="#262F63"></path></g><defs><linearGradient id="paint0_linear_2915_470" x1="313" y1="42.5136" x2="344.012" y2="42.5136" gradientUnits="userSpaceOnUse"><stop stop-color="#514975"></stop><stop offset="0.98" stop-color="#6C6491"></stop></linearGradient><linearGradient id="paint1_linear_2915_470" x1="559.006" y1="308.506" x2="619.984" y2="308.506" gradientUnits="userSpaceOnUse"><stop stop-color="#514975"></stop><stop offset="0.98" stop-color="#6C6491"></stop></linearGradient><linearGradient id="paint2_linear_2915_470" x1="325" y1="67" x2="324.5" y2="328" gradientUnits="userSpaceOnUse"><stop stop-color="#F3FAFC"></stop><stop offset="1" stop-color="#DDE5FC"></stop></linearGradient><linearGradient id="paint3_linear_2915_470" x1="393.769" y1="433" x2="394.711" y2="415.373" gradientUnits="userSpaceOnUse"><stop stop-color="#E8A341"></stop><stop offset="0.98" stop-color="#F3BF75"></stop></linearGradient><linearGradient id="paint4_linear_2915_470" x1="509.769" y1="433" x2="510.711" y2="415.373" gradientUnits="userSpaceOnUse"><stop stop-color="#E8A341"></stop><stop offset="0.98" stop-color="#F3BF75"></stop></linearGradient><linearGradient id="paint5_linear_2915_470" x1="496.769" y1="403" x2="497.711" y2="385.373" gradientUnits="userSpaceOnUse"><stop stop-color="#E8A341"></stop><stop offset="0.98" stop-color="#F3BF75"></stop></linearGradient><linearGradient id="paint6_linear_2915_470" x1="388.769" y1="448" x2="389.711" y2="430.373" gradientUnits="userSpaceOnUse"><stop stop-color="#E8A341"></stop><stop offset="0.98" stop-color="#F3BF75"></stop></linearGradient><linearGradient id="paint7_linear_2915_470" x1="504.769" y1="448" x2="505.711" y2="430.373" gradientUnits="userSpaceOnUse"><stop stop-color="#E8A341"></stop><stop offset="0.98" stop-color="#F3BF75"></stop></linearGradient><linearGradient id="paint8_linear_2915_470" x1="491.769" y1="418" x2="492.711" y2="400.373" gradientUnits="userSpaceOnUse"><stop stop-color="#E8A341"></stop><stop offset="0.98" stop-color="#F3BF75"></stop></linearGradient><linearGradient id="paint9_linear_2915_470" x1="393.769" y1="463" x2="394.711" y2="445.373" gradientUnits="userSpaceOnUse"><stop stop-color="#E8A341"></stop><stop offset="0.98" stop-color="#F3BF75"></stop></linearGradient><linearGradient id="paint10_linear_2915_470" x1="509.769" y1="463" x2="510.711" y2="445.373" gradientUnits="userSpaceOnUse"><stop stop-color="#E8A341"></stop><stop offset="0.98" stop-color="#F3BF75"></stop></linearGradient><linearGradient id="paint11_linear_2915_470" x1="263.545" y1="444.219" x2="263.545" y2="265.635" gradientUnits="userSpaceOnUse"><stop stop-color="#74C0B8"></stop><stop offset="1" stop-color="#4EA399"></stop></linearGradient><linearGradient id="paint12_linear_2915_470" x1="262.513" y1="222.038" x2="262.513" y2="175.137" gradientUnits="userSpaceOnUse"><stop stop-color="#74C0B8"></stop><stop offset="1" stop-color="#4EA399"></stop></linearGradient><clipPath id="clip0_2915_470"><rect width="650" height="550" fill="white"></rect></clipPath></defs></svg> 