<svg xmlns="http://www.w3.org/2000/svg" width="297" height="104" viewBox="0 0 297 104"><g transform="translate(-333 -496)"><rect width="5" height="47" rx="2.5" transform="translate(456 533)" fill="#cecece"></rect><rect width="5" height="69" rx="2.5" transform="translate(496 511)" fill="#cecece"></rect><rect width="5" height="35" rx="2.5" transform="translate(535 545)" fill="#cecece"></rect><rect width="5" height="49" rx="2.5" transform="translate(575 531)" fill="#cecece"></rect><rect width="5" height="68" rx="2.5" transform="translate(615 512)" fill="#cecece"></rect><rect width="5" height="56" rx="2.5" transform="translate(464 524)" fill="#09be8b"></rect><rect width="5" height="80" rx="2.5" transform="translate(504 500)" fill="#09be8b"></rect><rect width="5" height="40" rx="2.5" transform="translate(543 540)" fill="#09be8b"></rect><rect width="5" height="56" rx="2.5" transform="translate(583 524)" fill="#09be8b"></rect><rect width="5" height="76" rx="2.5" transform="translate(623 504)" fill="#09be8b"></rect><circle cx="12" cy="12" r="12" transform="translate(334 572)" fill="#09be8b"></circle><text transform="translate(375 535)" fill="#fff" font-size="20" font-family="Montserrat-SemiBold, Montserrat" font-weight="600"><tspan x="-39.12" y="0">$10,000</tspan></text><text transform="translate(386 590)" fill="#fff" font-size="18" font-family="Montserrat-SemiBold, Montserrat" font-weight="600"><tspan x="-16.497" y="0">12%</tspan></text><text transform="translate(348 510)" fill="#c5ccce" font-size="14" font-family="Montserrat-Medium, Montserrat" font-weight="500"><tspan x="-14.329" y="0">BTC</tspan></text><text transform="translate(461 597)" fill="#fff" font-size="12" font-family="Montserrat-Medium, Montserrat" font-weight="500" opacity="0.69"><tspan x="-4.002" y="0">0</tspan></text><text transform="translate(503 597)" fill="#fff" font-size="12" font-family="Montserrat-Medium, Montserrat" font-weight="500" opacity="0.69"><tspan x="-6.222" y="0">10</tspan></text><text transform="translate(542 597)" fill="#fff" font-size="12" font-family="Montserrat-Medium, Montserrat" font-weight="500" opacity="0.69"><tspan x="-7.428" y="0">20</tspan></text><text transform="translate(582 597)" fill="#fff" font-size="12" font-family="Montserrat-Medium, Montserrat" font-weight="500" opacity="0.69"><tspan x="-7.434" y="0">30</tspan></text><text transform="translate(621 597)" fill="#fff" font-size="12" font-family="Montserrat-Medium, Montserrat" font-weight="500" opacity="0.69"><tspan x="-8.016" y="0">40</tspan></text><g transform="translate(331.636 569.636)"><path d="M10.5,18.228,18.228,10.5" fill="none" stroke="#fff" stroke-linecap="round" stroke-linejoin="round" stroke-width="1.5"></path><path d="M10.5,10.5h7.728v7.728" fill="none" stroke="#fff" stroke-linecap="round" stroke-linejoin="round" stroke-width="1.5"></path></g></g></svg>