<svg xmlns="http://www.w3.org/2000/svg" xmlns:xlink="http://www.w3.org/1999/xlink" width="1000" height="610" xmlns:v="https://vecta.io/nano"><style><![CDATA[.B{fill:#263238}.C{opacity:.3}.D{fill:#008ad8}.E{fill:#e0e0e0}.F{fill:#ebebeb}.G{fill:#fff}.H{fill:#f5f5f5}.I{fill:#455a64}.J{fill:#ffbe9d}]]></style><defs><clipPath id="A"><path d="M0 0h1000v610H0z"/></clipPath><path id="B" d="M382.703 549.763c-.127-.155 7.466-6.267 16.937-13.648s17.275-13.225 17.4-13.07-7.466 6.281-16.937 13.648-17.258 13.239-17.4 13.07z"/><path id="C" d="M667.522 530.2c.127.155-6.506 5.519-14.805 11.983s-15.13 11.559-15.257 11.4 6.507-5.533 14.806-11.983 15.129-11.569 15.256-11.4z"/><path id="D" d="M667.522 432.419c.127.169-6.506 5.533-14.805 11.983s-15.13 11.559-15.257 11.4 6.507-5.519 14.806-11.983 15.129-11.555 15.256-11.4z"/><path id="E" d="M184.825 586.43c.113.169-6.125 5.222-13.945 11.291s-14.269 10.882-14.4 10.727 6.111-5.222 13.945-11.291 14.273-10.882 14.4-10.727z"/><path id="F" d="M184.825 560.107c.113.155-6.125 5.222-13.945 11.291s-14.269 10.9-14.4 10.727 6.111-5.222 13.945-11.291 14.273-10.896 14.4-10.727z"/><path id="G" d="M324.259 576.324a86.36 86.36 0 0 1 0-15.906c.489 5.291.489 10.615 0 15.906z"/><path id="H" d="M319.429 576.324c-.489-5.291-.489-10.615 0-15.906a86.36 86.36 0 0 1 0 15.906z"/><path id="I" d="M334.856 576.324a86.36 86.36 0 0 1 0-15.906 86.36 86.36 0 0 1 0 15.906z"/><path id="J" d="M340.643 576.324c-.489-5.291-.489-10.615 0-15.906a86.37 86.37 0 0 1 0 15.906z"/><path id="K" d="M317.326 592.231c-.489-5.291-.489-10.615 0-15.906.489 5.291.489 10.615 0 15.906z"/><path id="L" d="M359.767 592.231a86.37 86.37 0 0 1 0-15.906 86.36 86.36 0 0 1 0 15.906z"/><path id="M" d="M354.94 592.231a86.37 86.37 0 0 1 0-15.906c.489 5.291.489 10.615 0 15.906z"/><path id="N" d="M332.88 608.377c-.489-5.291-.489-10.615 0-15.906a86.35 86.35 0 0 1 0 15.906z"/><path id="O" d="M330.918 561.183a35.16 35.16 0 0 1-10.134 0 35.16 35.16 0 0 1 10.134 0z"/><path id="P" d="M775.888 576.244a86.35 86.35 0 0 1 0-15.906c.489 5.291.489 10.615 0 15.906z"/><path id="Q" d="M763.186 592.146c-.489-5.291-.489-10.615 0-15.906a83.19 83.19 0 0 1 0 15.906z"/></defs><g clip-path="url(#A)"><g class="E"><path d="M767.124 186.892c-34.563-11.164-58.034-43.28-58.174-79.601s23.081-68.617 57.556-80.049 72.393.592 93.981 29.801h0c21.708 29.34 21.981 69.341.674 98.974s-59.313 42.111-94.037 30.874zm49.92-154.463c-36.718-11.844-76.593 4.811-93.977 39.254s-7.1 76.415 24.237 98.92 74.395 18.841 101.479-8.635 30.128-70.583 7.174-101.593a78.33 78.33 0 0 0-38.912-27.946z"/><path d="M919.808 259.058h0c-2.132 1.762-4.878 2.604-7.632 2.339s-5.289-1.614-7.047-3.75l-66.335-80.914a1.79 1.79 0 0 1 .24-2.526l10.656-8.722a1.79 1.79 0 0 1 2.484.2l68.82 78.474a10.43 10.43 0 0 1-1.186 14.9z"/></g><g class="F"><path d="M768.564 182.376c-34.563-11.164-58.034-43.28-58.174-79.601s23.081-68.617 57.556-80.049 72.393.592 93.981 29.801h0c21.687 29.343 21.949 69.331.648 98.955s-59.291 42.108-94.011 30.893zm49.92-154.406c-36.706-11.827-76.558 4.834-93.924 39.266s-7.076 76.383 24.253 98.871 74.367 18.815 101.433-8.655 30.1-70.558 7.151-101.55a78.3 78.3 0 0 0-38.912-27.931z"/><path d="M839.151 170.796l13.426-10.997 71.434 87.208a6.72 6.72 0 0 1-.941 9.459l-2.982 2.443a6.72 6.72 0 0 1-9.459-.941l-71.434-87.208z"/></g><g class="E"><path d="M729.581 91.087c-.024-.882.018-1.764.127-2.639.052-1.033.174-2.061.367-3.077a39.74 39.74 0 0 1 .776-4.022l.579-2.315c.198-.805.522-1.609.79-2.47.508-1.722 1.284-3.472 2.047-5.335a65.15 65.15 0 0 1 6.605-11.293c2.641-3.493 5.635-6.704 8.934-9.583 1.43-1.234 2.924-2.393 4.474-3.472a24.1 24.1 0 0 1 2.131-1.411l2.061-1.228a36.85 36.85 0 0 1 3.627-1.906 23.35 23.35 0 0 1 2.823-1.256 18.5 18.5 0 0 1 2.484-.875 17.11 17.11 0 0 1-2.371 1.171c-.945.414-1.864.885-2.752 1.411-1.044.579-2.286 1.157-3.543 2l-2 1.256c-.692.438-1.411.974-2.075 1.411-1.411 1-2.893 2.258-4.418 3.528a61.97 61.97 0 0 0-15.314 20.635c-.776 1.835-1.567 3.557-2.089 5.236-.282.847-.607 1.637-.819 2.428l-.621 2.286c-.452 1.411-.649 2.823-.9 3.966a27.24 27.24 0 0 0-.494 3.034 16.33 16.33 0 0 1-.429 2.52zM374.982 251.968H252.558l-53.534-65.287 1.087-.9 53.125 64.783h121.746z"/><path d="M379.047 251.167a4.6 4.6 0 1 1-9.2 0 4.6 4.6 0 0 1 7.853-3.253 4.6 4.6 0 0 1 1.347 3.253z"/></g><path d="M92.872 136.718c-.449-38.519 30.384-70.124 68.902-70.629s70.168 30.281 70.73 68.799-30.178 70.213-68.695 70.831a69.82 69.82 0 0 1-70.937-69zm103.2-1.665c-.384-18.409-15.603-33.03-34.012-32.677s-33.056 15.547-32.734 33.957 15.492 33.082 33.903 32.79a33.38 33.38 0 0 0 32.843-34.071z" class="H"/><path d="M92.873 136.717c-.653-38.625 30.07-70.497 68.693-71.261l.593 36.6c-18.473.361-33.175 15.595-32.88 34.069s15.477 33.23 33.953 33l.579 36.6c-38.627.495-70.363-30.374-70.937-69z" class="E"/><path d="M155.299 59.825c45.038-.72 80.972 34.226 81.691 79.476l-42.624.677c-.353-21.623-16.81-35.285-38.333-34.9z" class="F"/><path d="M375.787 41.731c2.447 16.555-5.324 32.954-19.688 41.542s-32.487 7.672-45.912-2.32-19.504-27.09-15.4-43.315 17.582-28.376 34.143-30.783c22.563-3.28 43.524 12.321 46.858 34.876z" class="H"/><path d="M365.977 43.142c1.866 12.617-4.056 25.115-15.003 31.661s-24.759 5.848-34.991-1.767-14.864-20.646-11.736-33.011 13.4-21.625 26.022-23.459c17.194-2.498 33.166 9.39 35.708 26.577z" class="F"/><path d="M365.907 42.168a17.85 17.85 0 0 1-1.412-3.627c-1.184-3.254-2.871-6.302-5-9.033a31.49 31.49 0 0 0-11.828-9.329 30.63 30.63 0 0 0-13.3-2.738 31.39 31.39 0 0 0-4.841.466c-1.6.291-3.176.701-4.714 1.228-1.491.512-2.939 1.14-4.333 1.877a28.23 28.23 0 0 0-3.853 2.428c-1.183.858-2.301 1.801-3.345 2.823-1.932 1.899-3.612 4.038-5 6.365a32.46 32.46 0 0 0-2.823 6.464c-1.084 3.299-1.646 6.746-1.666 10.218.138 1.285.138 2.582 0 3.867a9.2 9.2 0 0 1-.9-3.825 29.16 29.16 0 0 1 .861-10.727 32.63 32.63 0 0 1 2.823-6.972c2.169-3.921 5.13-7.348 8.694-10.063a29.84 29.84 0 0 1 4.051-2.653 32.21 32.21 0 0 1 4.658-2.075c1.658-.568 3.357-1.011 5.081-1.327 1.726-.296 3.471-.461 5.222-.494a30.23 30.23 0 0 1 5.081.339c1.626.229 3.231.588 4.8 1.073a31.13 31.13 0 0 1 16.683 12.082 29.1 29.1 0 0 1 4.5 9.767c.456 1.235.647 2.552.561 3.866z" class="E"/><path d="M94.792 319.62a29.91 29.91 0 0 1-54.117-11.25 29.91 29.91 0 0 1 46.256-30.259c13.616 9.303 17.133 27.872 7.861 41.509z" class="H"/><path d="M88.907 315.597c-5.18 7.638-14.455 11.399-23.491 9.525s-16.052-9.011-17.769-18.078 2.203-18.276 9.929-23.324 17.733-4.938 25.348.277c10.352 7.091 13.027 21.215 5.984 31.6z" class="F"/><path d="M89.274 315.047c.253-.902.603-1.774 1.044-2.6.964-2.322 1.564-4.778 1.778-7.283a22.67 22.67 0 0 0-.155-5.123 22.4 22.4 0 0 0-1.581-5.646 20.48 20.48 0 0 0-1.411-2.823c-.564-.942-1.201-1.839-1.905-2.682-.724-.88-1.517-1.701-2.371-2.456a24.79 24.79 0 0 0-2.823-2.117c-.992-.627-2.03-1.179-3.105-1.651-1.046-.462-2.126-.839-3.232-1.129-1.059-.286-2.14-.484-3.232-.593a21.78 21.78 0 0 0-3.162-.127c-1.962.062-3.907.381-5.787.946-1.641.498-3.222 1.174-4.714 2.018-2.169 1.24-4.131 2.812-5.815 4.658l-1.92 2.046a6.76 6.76 0 0 1 1.411-2.484 21.17 21.17 0 0 1 5.716-5.279 23.33 23.33 0 0 1 4.912-2.343 23.7 23.7 0 0 1 6.14-1.171c1.132-.084 2.268-.084 3.4 0 1.181.106 2.352.309 3.5.607a23.12 23.12 0 0 1 6.845 2.964c1.064.683 2.074 1.447 3.02 2.286a23.88 23.88 0 0 1 2.555 2.668 23.2 23.2 0 0 1 3.514 5.984c1.45 3.649 1.936 7.609 1.411 11.5a20.76 20.76 0 0 1-2.385 7.41 6.61 6.61 0 0 1-1.648 2.42z" class="E"/><path d="M612.661 76.522a29.91 29.91 0 0 1-48.995 25.592 29.91 29.91 0 0 1 16.618-52.719c16.425-1.427 30.906 10.706 32.377 27.127z" class="H"/><path d="M605.576 77.143c.822 9.187-3.974 17.964-12.15 22.234s-18.119 3.193-25.19-2.73-9.875-15.523-7.105-24.321 10.571-15.058 19.76-15.86c12.522-1.093 23.565 8.157 24.685 20.677z" class="F"/><path d="M605.501 76.437c-.376-.862-.66-1.761-.847-2.682a24.22 24.22 0 0 0-3.218-6.732c-2.69-3.935-6.567-6.906-11.065-8.482a21.04 21.04 0 0 0-3.176-.875c-1.117-.22-2.249-.354-3.387-.4-1.173-.044-2.348.003-3.514.141a23.08 23.08 0 0 0-3.458.692c-1.095.308-2.165.699-3.2 1.171a22.67 22.67 0 0 0-9.287 7.89c-.947 1.426-1.737 2.949-2.357 4.545-.899 2.337-1.427 4.8-1.567 7.3a12.94 12.94 0 0 1-.184 2.823 6.79 6.79 0 0 1-.494-2.823c-.117-2.613.246-5.225 1.073-7.706.577-1.727 1.354-3.38 2.315-4.926a23.67 23.67 0 0 1 4.022-4.8 23.24 23.24 0 0 1 2.668-2.089c2.006-1.363 4.217-2.397 6.549-3.063a24.7 24.7 0 0 1 3.712-.748c1.262-.138 2.532-.185 3.8-.141a25.87 25.87 0 0 1 3.656.452 22.2 22.2 0 0 1 3.416.988 23.73 23.73 0 0 1 3.091 1.411c3.46 1.881 6.377 4.622 8.468 7.96a21.07 21.07 0 0 1 2.823 7.255 6.86 6.86 0 0 1 .169 2.837z" class="E"/><path d="M957.041 344.475c-6.538 14.359-21.086 23.361-36.854 22.805s-29.645-10.562-35.154-25.347-1.564-31.431 9.994-42.171 28.45-13.453 42.79-6.874c19.529 8.959 28.126 32.031 19.223 51.586z" class="H"/><path d="M948.615 340.607a29.64 29.64 0 0 1-56.565-13.421 29.64 29.64 0 0 1 57.39-9.279 29.64 29.64 0 0 1-.825 22.7z" class="F"/><path d="M948.996 339.761a17.67 17.67 0 0 1 .776-3.571 31.61 31.61 0 0 0 .677-9.71 30.48 30.48 0 0 0-1.327-6.549c-.79-2.427-1.891-4.743-3.274-6.888-.737-1.162-1.563-2.265-2.47-3.3-.937-1.088-1.957-2.102-3.049-3.034-1.123-.969-2.322-1.847-3.585-2.625-1.308-.8-2.671-1.508-4.079-2.117a31.35 31.35 0 0 0-4.347-1.411 28.23 28.23 0 0 0-4.389-.72 29.42 29.42 0 0 0-21.284 6.591c-2.52 2.072-4.701 4.524-6.464 7.269l-2.018 3.049a9.16 9.16 0 0 1 1.256-3.486 27.27 27.27 0 0 1 6.168-8.045 29.54 29.54 0 0 1 13.436-6.944 30.78 30.78 0 0 1 4.375-.663c1.546-.12 3.098-.12 4.644 0a29.3 29.3 0 0 1 4.742.748 32.61 32.61 0 0 1 4.7 1.538 33.11 33.11 0 0 1 4.389 2.286 29.98 29.98 0 0 1 3.853 2.823c1.162 1.014 2.242 2.118 3.232 3.3a29.3 29.3 0 0 1 2.6 3.6 30.31 30.31 0 0 1 3.3 7.466c.641 2.278 1.02 4.622 1.129 6.986.156 3.408-.322 6.816-1.411 10.049-.275 1.221-.814 2.368-1.58 3.358z" class="E"/><g class="F"><path d="M398.087 422.059h38.348v187.504h-38.348zm485.689.438h38.348v187.504h-38.348zM77.743 394.89h38.348v214.673H77.743zm80.082-95.368h38.348v310.041h-38.348zm80.083 64.853h38.348v245.187h-38.348zm80.082-82.947h38.348v328.149H317.99zm160.179 1.595h38.348v326.54h-38.348zm80.083 107.252H596.6v219.288h-38.348zm80.082-92.87h38.348v312.158h-38.348zm80.083-70.316h38.348v382.474h-38.348zm80.082 68.721h38.348v313.753h-38.348z"/></g><g transform="matrix(.798919 .601426 -.601426 .798919 71.187087 287.327265)" class="E"><path d="M.021 6.347h9.1a4.085 4.085 0 0 0-.516-1.3 3.15 3.15 0 0 0-1.012-1.013A5.157 5.157 0 0 0 5.99 3.4a10.08 10.08 0 0 0-2.273-.22H0L.021 0h18.055v3.176H12.27a5.411 5.411 0 0 1 .921 1.414 5.917 5.917 0 0 1 .471 1.757H18.1V9.5h-4.53a6.868 6.868 0 0 1-2.07 3.66 8.56 8.56 0 0 1-4.1 2.093v.075a7.275 7.275 0 0 1 1.22.722 7.641 7.641 0 0 1 1.084.942 11.754 11.754 0 0 1 1.031 1.242l1.1 1.563 5.228 7.959H11.9l-4.413-7.14-1.211-1.832a6.849 6.849 0 0 0-1.22-1.308 4.743 4.743 0 0 0-1.431-.784 5.863 5.863 0 0 0-1.828-.26H.021v-3.37H3.7a6.672 6.672 0 0 0 1.872-.26 5.772 5.772 0 0 0 1.6-.735 4.943 4.943 0 0 0 1.2-1.123A4.058 4.058 0 0 0 9.077 9.5H.021z"/></g><g transform="matrix(.940031 -.342267 .342267 .940031 315.725397 33.471599)" class="E"><path d="M.031 9.132h13.088a5.878 5.878 0 0 0-.742-1.876 4.533 4.533 0 0 0-1.451-1.451 7.42 7.42 0 0 0-2.306-.919 14.5 14.5 0 0 0-3.27-.317H0L.031 0h25.978v4.569h-8.353A7.786 7.786 0 0 1 18.981 6.6a8.514 8.514 0 0 1 .678 2.529h6.382v4.541h-6.515a9.882 9.882 0 0 1-2.972 5.266 12.318 12.318 0 0 1-5.913 3.011v.107a10.468 10.468 0 0 1 1.759 1.04 11 11 0 0 1 1.56 1.356 16.913 16.913 0 0 1 1.483 1.788l1.578 2.25 7.519 11.451h-7.41l-6.35-10.273-1.743-2.636a9.855 9.855 0 0 0-1.755-1.882 6.825 6.825 0 0 0-2.06-1.128 8.436 8.436 0 0 0-2.63-.374H.031V18.8h5.292a9.6 9.6 0 0 0 2.694-.374 8.305 8.305 0 0 0 2.3-1.058 7.113 7.113 0 0 0 1.724-1.616 5.839 5.839 0 0 0 1.02-2.079H.031z"/></g><g transform="matrix(.981627 -.190808 .190808 .981627 572.415811 68.399367)" class="E"><path d="M.019 5.756h8.249A3.7 3.7 0 0 0 7.8 4.573a2.857 2.857 0 0 0-.915-.915 4.677 4.677 0 0 0-1.453-.578 9.141 9.141 0 0 0-2.061-.2H0L.019 0h16.373v2.88h-5.264a4.907 4.907 0 0 1 .835 1.282 5.366 5.366 0 0 1 .427 1.594h4.022v2.86h-4.106a6.228 6.228 0 0 1-1.873 3.319 7.763 7.763 0 0 1-3.727 1.9v.065a6.6 6.6 0 0 1 1.106.655 6.93 6.93 0 0 1 .983.855 10.659 10.659 0 0 1 .935 1.127l.995 1.418 4.741 7.218H10.8l-4-6.475-1.1-1.662a6.211 6.211 0 0 0-1.11-1.187 4.3 4.3 0 0 0-1.3-.711 5.317 5.317 0 0 0-1.656-.238H.019v-3.053h3.336a6.051 6.051 0 0 0 1.7-.236 5.234 5.234 0 0 0 1.45-.667 4.483 4.483 0 0 0 1.084-1.018 3.68 3.68 0 0 0 .643-1.31H.019z"/></g><g transform="matrix(.83867 .54464 -.54464 .83867 923.545301 308.490633)" class="E"><path d="M.026 7.6h10.886a4.889 4.889 0 0 0-.617-1.56 3.77 3.77 0 0 0-1.207-1.211 6.172 6.172 0 0 0-1.918-.764A12.064 12.064 0 0 0 4.449 3.8H0L.026 0h21.608v3.8h-6.948a6.476 6.476 0 0 1 1.1 1.692 7.082 7.082 0 0 1 .564 2.1h5.31v3.778h-5.419a8.22 8.22 0 0 1-2.472 4.381 10.246 10.246 0 0 1-4.918 2.5v.089a8.707 8.707 0 0 1 1.46.865 9.145 9.145 0 0 1 1.3 1.128 14.068 14.068 0 0 1 1.234 1.487l1.313 1.871 6.257 9.526h-6.166l-5.282-8.541-1.45-2.193a8.2 8.2 0 0 0-1.46-1.566 5.677 5.677 0 0 0-1.713-.938 7.017 7.017 0 0 0-2.187-.311H.026v-4.033h4.4a7.985 7.985 0 0 0 2.241-.311 6.908 6.908 0 0 0 1.914-.88 5.917 5.917 0 0 0 1.435-1.344 4.857 4.857 0 0 0 .848-1.729H.026z"/></g><path d="M958.156 608.476c0 .2-205.767.367-459.55.367S39 608.617 39 608.476s205.725-.367 459.606-.367l459.55.367z" class="B"/><path d="M382.322 325.28h169.889v283.069H382.322z" class="I"/><g class="C"><path d="M382.322 325.28h169.889v283.069H382.322z"/></g><g class="I"><path d="M417.579 325.28h169.889v283.069H417.579zm-.522 138.797c.127.169-7.466 6.281-16.937 13.648s-17.275 13.225-17.4 13.07 7.466-6.267 16.937-13.648 17.273-13.225 17.4-13.07z"/><path d="M417.057 448.128c.127.155-7.466 6.267-16.937 13.634s-17.275 13.239-17.4 13.07 7.466-6.267 16.937-13.648 17.273-13.225 17.4-13.056zm0-15.936c.127.155-7.466 6.267-16.937 13.648s-17.275 13.168-17.417 13.041 7.466-6.267 16.937-13.648 17.29-13.223 17.417-13.041zm0-15.99c.127.169-7.466 6.281-16.937 13.648s-17.275 13.225-17.417 13.069 7.466-6.267 16.937-13.648 17.29-13.224 17.417-13.069zm0-15.949c.127.155-7.466 6.267-16.937 13.648s-17.275 13.225-17.4 13.055 7.466-6.267 16.937-13.648 17.273-13.226 17.4-13.055zm0-15.963c.127.155-7.466 6.267-16.937 13.648s-17.275 13.225-17.417 13.084 7.466-6.267 16.937-13.648 17.29-13.168 17.417-13.084zm0-15.962c.127.169-7.466 6.281-16.937 13.648s-17.275 13.225-17.4 13.07 7.466-6.267 16.937-13.648 17.273-13.221 17.4-13.07zm0-15.949c.127.155-7.466 6.267-16.937 13.648s-17.275 13.225-17.4 13.055 7.466-6.267 16.937-13.648 17.273-13.224 17.4-13.055zm0-15.964c.127.155-7.466 6.267-16.937 13.648s-17.275 13.225-17.4 13.07 7.466-6.267 16.937-13.648 17.273-13.267 17.4-13.07zm-6.972-10.542c.127.169-5.9 5.067-13.465 10.938s-13.789 10.529-13.916 10.36 5.9-5.053 13.465-10.938 13.789-10.515 13.916-10.36zm-20.184-.297a14.4 14.4 0 0 1-3.387 3.105 14.11 14.11 0 0 1-3.853 2.526 29.18 29.18 0 0 1 7.24-5.646zm-7.283 185.472c-.127-.169 7.466-6.281 16.937-13.648s17.275-13.239 17.388-13.07-7.452 6.267-16.937 13.648-17.261 13.253-17.388 13.07zm1.044 20.183c-.113-.155 7.466-6.267 16.937-13.648s17.275-13.225 17.4-13.07-7.466 6.267-16.937 13.648-17.273 13.225-17.4 13.07z"/><use xlink:href="#B"/><path d="M382.703 565.726c-.127-.155 7.466-6.267 16.937-13.648s17.275-13.225 17.4-13.07-7.466 6.267-16.937 13.648-17.258 13.224-17.4 13.07zm0 15.962c-.127-.169 7.466-6.281 16.937-13.648s17.275-13.239 17.4-13.07-7.466 6.267-16.937 13.648-17.258 13.183-17.4 13.07zm0 15.949c-.127-.155 7.466-6.267 16.937-13.648s17.275-13.225 17.4-13.07-7.466 6.281-16.937 13.648-17.258 13.239-17.4 13.07zm6.973 10.544c-.127-.169 5.9-5.067 13.465-10.938s13.789-10.515 13.916-10.36-5.9 5.053-13.465 10.938-13.789 10.514-13.916 10.36zm20.14.296a28.51 28.51 0 0 1 7.24-5.646c-.962 1.208-2.11 2.256-3.4 3.105a15.23 15.23 0 0 1-3.839 2.541zm227.7-200.348H787.18v200.164H637.516z"/></g><g class="C"><path d="M637.516 408.129H787.18v200.164H637.516z"/></g><g class="I"><path d="M667.522 408.129h149.664v200.164H667.522z"/><use xlink:href="#C"/><path d="M667.522 516.227c.127.155-6.506 5.533-14.805 11.983s-15.13 11.559-15.257 11.4 6.507-5.533 14.806-11.983 15.129-11.555 15.256-11.4zm0-13.972c.127.169-6.506 5.533-14.805 11.983s-15.13 11.573-15.257 11.4 6.507-5.519 14.806-11.983 15.129-11.555 15.256-11.4zm0-13.959c.127.155-6.506 5.519-14.805 11.983s-15.13 11.559-15.257 11.4 6.507-5.533 14.806-11.983 15.129-11.569 15.256-11.4zm0-13.973c.127.155-6.506 5.533-14.805 11.983s-15.13 11.559-15.257 11.4 6.507-5.519 14.806-11.983 15.129-11.551 15.256-11.4zm0-13.904c.127.169-6.506 5.533-14.805 11.983s-15.13 11.573-15.257 11.4 6.507-5.519 14.806-11.983 15.129-11.624 15.256-11.4zm0-14.028c.127.155-6.506 5.519-14.805 11.983s-15.13 11.559-15.257 11.4 6.507-5.533 14.806-11.983 15.129-11.569 15.256-11.4z"/><use xlink:href="#D"/><path d="M667.522 418.46c.127.155-6.506 5.519-14.805 11.969s-15.13 11.573-15.257 11.4 6.507-5.519 14.806-11.983 15.129-11.557 15.256-11.386z"/><path d="M661.425 409.229c.127.155-5.137 4.46-11.757 9.612s-12.081 9.188-12.209 9.033 5.138-4.46 11.757-9.612 12.082-9.188 12.209-9.033zm-17.628-.253c.127.155-1.186 1.411-2.936 2.752a11.69 11.69 0 0 1-3.4 2.117c-.127-.155 1.2-1.411 2.95-2.823a10.85 10.85 0 0 1 3.387-2.046zm23.725 176.113c.127.155-6.506 5.519-14.805 11.983s-15.13 11.545-15.257 11.4 6.506-5.533 14.805-11.983 15.13-11.555 15.257-11.4zm0-13.972c.127.169-6.506 5.533-14.805 11.983s-15.13 11.559-15.257 11.4 6.507-5.519 14.806-11.983 15.129-11.555 15.256-11.4zm0-13.959c.127.155-6.506 5.519-14.805 11.983s-15.13 11.559-15.257 11.39 6.507-5.519 14.806-11.983 15.129-11.559 15.256-11.39zm0-13.973c.127.155-6.506 5.519-14.805 11.983s-15.13 11.559-15.257 11.4 6.507-5.533 14.806-11.983 15.129-11.555 15.256-11.4zm-511.037-71.007h160.461v136.298H156.485z"/></g><g class="C"><path d="M156.485 472.178h160.461v136.298H156.485z"/></g><g class="I"><path d="M185.362 472.178h160.461v136.298H185.362z"/><use xlink:href="#E"/><path d="M184.825 573.33c.113.169-6.125 5.236-13.945 11.291s-14.269 10.882-14.4 10.727 6.111-5.222 13.945-11.291 14.273-10.951 14.4-10.727z"/><use xlink:href="#F"/><path d="M184.825 546.938c.113.155-6.125 5.222-13.945 11.291s-14.269 10.9-14.4 10.741 6.111-5.236 13.945-11.291 14.273-10.895 14.4-10.741zm0-13.126c.113.169-6.125 5.222-13.945 11.291s-14.269 10.882-14.4 10.727 6.111-5.222 13.945-11.291 14.273-10.927 14.4-10.727zm0-13.195c.113.155-6.125 5.222-13.945 11.291s-14.269 10.882-14.4 10.727 6.111-5.222 13.945-11.291 14.273-10.896 14.4-10.727zm0-13.169c.113.155-6.125 5.222-13.945 11.291s-14.269 10.9-14.4 10.727 6.111-5.222 13.945-11.291 14.273-10.896 14.4-10.727zm0-13.155c.113.155-6.125 5.222-13.945 11.291s-14.269 10.9-14.4 10.741 6.111-5.222 13.945-11.291 14.273-10.909 14.4-10.741zm0-13.181c.113.169-6.125 5.222-13.945 11.291s-14.269 10.882-14.4 10.727 6.111-5.222 13.945-11.291 14.273-10.882 14.4-10.727zm-5.76-8.696A133.5 133.5 0 0 1 168 481.491a140.25 140.25 0 0 1-11.517 8.468c3.532-3.211 7.225-6.24 11.065-9.075 6.241-4.811 11.392-8.622 11.517-8.468zm-16.61-.238c.127.155-1.1 1.327-2.752 2.611a9.88 9.88 0 0 1-3.218 2.032c-.127-.155 1.115-1.327 2.823-2.611.914-.867 1.981-1.556 3.147-2.032z"/></g><g class="C"><path d="M559.959 313.282a8.47 8.47 0 0 0-4.135-.226l-134.082 12.815v.466c27.696 7.962 56.517 11.301 85.3 9.88 2.7-.127 5.773-.155 7.607 1.835s1.411 5.561.8 8.468q-9.1 39.59-18.193 79.165c-.946 4.15-1.609 9.245 1.637 11.983 4.488 3.8 11.094-.706 14.876-5.194 25.687-30.472 37.345-70.019 48.34-108.324 1.167-3.881 1.632-9.315-2.15-10.868z"/></g><path d="M615.003 300.411a22.58 22.58 0 0 0-16.259-5.363l-9.88 31.6c7.283.311 14.551 4.079 21.58 2.145 5.752-1.771 9.943-6.733 10.727-12.7a18.35 18.35 0 0 0-6.168-15.681z" class="D"/><path d="M598.928 294.314c0-.254 1.073-.452 3.006-.438a24.43 24.43 0 0 1 8.144 1.538c3.968 1.555 7.399 4.227 9.88 7.692a20.45 20.45 0 0 1 3.3 6.845 18.19 18.19 0 0 1 .24 8.285 16.8 16.8 0 0 1-3.613 7.551c-1.727 1.999-3.931 3.528-6.408 4.446-4.011 1.424-8.34 1.701-12.5.8a39.19 39.19 0 0 1-7.791-2.413c-1.764-.762-2.682-1.313-2.6-1.567s1.143-.183 3.006.127 4.516.875 7.763 1.171a22.1 22.1 0 0 0 10.8-1.411 12.7 12.7 0 0 0 4.855-3.585c1.384-1.712 2.324-3.738 2.738-5.9a16.26 16.26 0 0 0-2.611-12.293c-2.032-3.07-4.822-5.564-8.1-7.24a36.2 36.2 0 0 0-7.254-2.526c-1.853-.504-2.888-.814-2.855-1.082z" class="E"/><path d="M508.895 410.485l-20.028 56.117 69.709 25.292c2-6.817-29.216-33.252-29.216-33.252l14.382-35.44z" class="D"/><g opacity=".6" class="G"><path d="M508.909 447.803a3.02 3.02 0 0 0-3.147 2.526c-.136 1.541.953 2.921 2.484 3.147a3.19 3.19 0 0 0 3.317-2.71c0-1.482-1.411-3.19-2.95-2.978"/></g><path d="M488.867 466.603l2.018-5.646 66.208 26.407s2.625 2.484 1.482 4.545z" class="H"/><g class="B"><path d="M530.616 458.698c-.127.325-1.891-.127-3.952.353s-3.486 1.595-3.754 1.411.96-2.018 3.472-2.569 4.431.509 4.234.805zm6.224 5.675c0 .353-1.736.4-3.4 1.411s-2.569 2.428-2.907 2.286.155-2.131 2.258-3.373 4.162-.663 4.049-.324zm.975 10.246c-.339 0-.2-1.905 1.411-3.458s3.416-1.708 3.458-1.411-1.313.974-2.555 2.258-1.958 2.71-2.314 2.611zm-4.828-24.36c-.254.254-1.651-.776-3.613-1.411s-3.7-.494-3.768-.861 1.807-1.044 4.121-.339 3.528 2.399 3.26 2.611zm1.342-8.878a7.05 7.05 0 0 1-3.486-1.284 17.41 17.41 0 0 1-3.246-2.442 18.35 18.35 0 0 1-1.623-1.793c-.308-.36-.56-.765-.748-1.2a1.58 1.58 0 0 1 .494-1.877c.523-.351 1.18-.44 1.778-.24.441.165.859.388 1.242.663a13.87 13.87 0 0 1 1.905 1.524 13.35 13.35 0 0 1 2.456 3.288 6.14 6.14 0 0 1 1.016 3.571c-.2 0-.593-1.284-1.792-3.119a14.31 14.31 0 0 0-2.47-2.823 13.85 13.85 0 0 0-1.792-1.411c-.663-.452-1.284-.692-1.595-.423s-.141.141-.071.409a4.52 4.52 0 0 0 .565.889 19.85 19.85 0 0 0 1.411 1.722 20.8 20.8 0 0 0 2.907 2.512 26.83 26.83 0 0 1 3.049 2.033z"/><path d="M533.708 441.706a5.94 5.94 0 0 1 .3-3.7 12.45 12.45 0 0 1 1.863-3.656 13.15 13.15 0 0 1 1.665-1.792 3.09 3.09 0 0 1 2.823-.96 1.75 1.75 0 0 1 1.1 1.51c.027.473-.007.947-.1 1.411a8.27 8.27 0 0 1-.861 2.343 8.38 8.38 0 0 1-2.823 3.063c-2.018 1.313-3.585 1.214-3.571 1.087a30.53 30.53 0 0 0 3.049-1.807 8.33 8.33 0 0 0 2.286-2.823 7.34 7.34 0 0 0 .677-2.033c.155-.776.1-1.482-.212-1.51-.622-.013-1.22.244-1.637.706a12.58 12.58 0 0 0-1.553 1.581 13.11 13.11 0 0 0-1.934 3.232c-.762 1.964-.917 3.362-1.072 3.348zm-99.815-190.722c-11.418.268-22.244 1.877-30.105 10.148-10.43 10.981-23.316 26.633-23.994 37.473-1.186 16.217 8.694 21.03 15.751 25a19.93 19.93 0 0 0 10.374 2.385l131.923-1 4.149-22.342-85.333-21.03 3.543-32.109z"/><path d="M460.216 249.502l41.509-1.919s71.656 3.952 86.984 18.066 13.38 29.95 8.285 45.165-50.02 113.109-50.02 113.109 3.641 6.224 1.595 12.42c-1.672 5.521-6.12 9.76-11.715 11.164l-39.9-14.664s-5.42-1.905-1.595-7.057 6.365-6.041 6.365-6.041V409.61s14.029-25.49 15.3-28.99 14.707-55.383 14.707-55.383l8.934-15.342s-21.594-10.148-40.3-17.5l-43.748-10.77z"/></g><g class="I"><path d="M527.539 431.012c-.085.1-1.341-.9-3.5-2.286a47.07 47.07 0 0 0-18.63-7.057 41.06 41.06 0 0 1-4.149-.621 15.61 15.61 0 0 1 4.234.085c3.382.361 6.703 1.158 9.88 2.371a39 39 0 0 1 8.962 4.8 15.76 15.76 0 0 1 3.203 2.708zm19.929-7.005a14.58 14.58 0 0 1-2.315-2.442l-5.01-6.365-4.587-6.69a12.7 12.7 0 0 1-1.637-2.936c.785.806 1.485 1.69 2.089 2.639l4.756 6.535 4.813 6.478a14.9 14.9 0 0 1 1.891 2.78zm14.623-128.127a39.17 39.17 0 0 1-3.768 1.214 40.65 40.65 0 0 0-8.6 4.022 41.07 41.07 0 0 0-7.4 5.956 30.49 30.49 0 0 1-2.738 2.823 13.53 13.53 0 0 1 2.348-3.235 33.6 33.6 0 0 1 7.382-6.238 34.2 34.2 0 0 1 8.835-3.9 13.62 13.62 0 0 1 3.941-.642zm-40.804 69.257c.017-.292.069-.581.155-.861l.621-2.428 2.385-8.906 8.172-29.286 4.672-16.1a33.55 33.55 0 0 1 7.509-11.461 42.44 42.44 0 0 1 7.128-5.871c.932-.593 1.651-1.03 2.159-1.3a4.5 4.5 0 0 1 .79-.4l-2.823 1.934c-2.485 1.782-4.795 3.795-6.9 6.013a33.52 33.52 0 0 0-7.24 11.291c-1.538 4.855-2.95 10.374-4.6 16.062l-8.341 29.329-2.625 8.835-.748 2.385a3.51 3.51 0 0 1-.314.764zm-36.711-74.705c-.212 0-1.087-7.749-1.948-17.332s-1.411-17.388-1.186-17.4 1.087 7.734 1.948 17.332 1.398 17.372 1.186 17.4zm-69.073 20.706c-.127 0-.762-1.2-2.061-3.034a31.05 31.05 0 0 0-6.027-6.337c-2.316-1.791-4.878-3.239-7.607-4.3l-3.444-1.27c1.241.057 2.465.309 3.627.748a26.31 26.31 0 0 1 13.9 10.868 11.29 11.29 0 0 1 1.612 3.325zm25.419-28.172c0 .127-1.835-1-4.883-2.385a46.04 46.04 0 0 0-25.5-3.67l-5.349.932a4.81 4.81 0 0 1 1.411-.522 31.65 31.65 0 0 1 3.9-.946 41.79 41.79 0 0 1 25.828 3.712 28.67 28.67 0 0 1 3.472 2 5.21 5.21 0 0 1 1.121.879z"/><path d="M540.298 302.627a9.32 9.32 0 0 1-1.03-.169l-2.932-.653-10.755-2.413-35.567-7.523-35.751-6.591-10.868-1.863-2.95-.536a8.22 8.22 0 0 1-1.016-.226c.35-.01.7.019 1.044.085l2.964.381 10.91 1.623c9.2 1.411 21.877 3.627 35.821 6.379s26.492 5.575 35.539 7.749l10.7 2.653 2.907.776a4.61 4.61 0 0 1 .984.328z"/><path d="M456.674 285.408a42.23 42.23 0 0 0-1.821-4.234 18.35 18.35 0 0 0-3.02-3.91 51.99 51.99 0 0 0-4.615-3.994c-2.99-2.206-6.153-4.169-9.456-5.871-1.404-.654-2.754-1.419-4.037-2.286a24.8 24.8 0 0 1 4.234 1.807c3.415 1.578 6.66 3.503 9.682 5.744a43.85 43.85 0 0 1 4.658 4.107c1.191 1.233 2.199 2.63 2.992 4.15.515 1.023.908 2.103 1.171 3.218a3.95 3.95 0 0 1 .212 1.269z"/></g><g class="B"><path d="M603.614 305.351c.169.169-2.032 2.4-3.754 5.787s-2.272 6.464-2.512 6.422a16.84 16.84 0 0 1 6.266-12.209zm106.757-190.835a1.4 1.4 0 0 1-.127.2l-.381.565-1.552 2.174-5.984 8.059-21.411 28.581-.184.254-.254-.184-18.673-13.2.494-.085-14.043 18.969-15.271 20.564-.183.268-.268-.169-22.937-13.418.4-.085-19.76 24.7-5.561 6.817-1.488 1.788a5.84 5.84 0 0 1-.522.593 4.92 4.92 0 0 1 .452-.649l1.411-1.849 5.42-6.958 19.576-24.869.169-.212.226.141 22.977 13.352-.466.1 15.243-20.592 14.114-18.956.212-.282.282.212 18.619 13.249h-.438l21.625-28.422 6.111-7.946 1.637-2.075.438-.536s.083-.099.097-.099z"/><path d="M708.367 135.461a7.8 7.8 0 0 1 0-1.651l.31-4.474 1.3-14.749v-.1l.494.381-13.93 4.869-4.234 1.411a6.38 6.38 0 0 1-1.581.409 7.52 7.52 0 0 1 1.5-.677l4.164-1.623 13.846-5.067.55-.2v.635l-1.51 14.721-.55 4.46c-.044.564-.163 1.119-.353 1.651z"/></g><path d="M546.466 196.814c-.649-4.319-13.549-18.6-13.549-18.6s-11.221-27.466-13.154-35.1A116.35 116.35 0 0 0 514.484 129c-4.516-7.636-6.746-7.777-14.481-12.124l-14.989-6.619-1.835-4.079c-1.577-3.515-4.305-6.388-7.734-8.144l-37.557-19.396-11.63 20.536s-22.328 10.543-23.627 12.209c-4.587 5.843-1.411 99.687-1.411 99.687s-2.244 36.569-4.742 46.83-3.952 17.84-3.952 17.84l11.15-12.815c6.549-8.2 20.9-11.983 31.22-11.827l88.127.381-5.363-26.28 73.124 15.455s12.265-23.909 13.239-24.389-57.557-19.451-57.557-19.451z" class="D"/><path d="M435.982 107.233c-.621-.621 7.057 17.671 12.011 37.543 3.133 12.392 3.8 32.462 3.8 43.612l1.891 31.248v27.339l42.257-2.823-6.323-45.927-6.591-40.93c-1.313-10.317-7.593-51.671-7.593-51.671s-21.753 19.633-39.452 1.609z" class="G"/><g class="B"><path d="M529.751 214.146a3.02 3.02 0 0 1 0-1.073 16.41 16.41 0 0 1 .55-2.823c.907-3.093 2.571-5.911 4.841-8.2 2.277-2.277 5.093-3.942 8.186-4.841a15.41 15.41 0 0 1 2.823-.565h1.073a29.78 29.78 0 0 0-3.74 1.073 20.25 20.25 0 0 0-12.7 12.7l-1.033 3.729zm2.192-16.739a13.45 13.45 0 0 1 6.45-1.863 13.21 13.21 0 0 1 6.662.79c0 .226-2.978-.339-6.605 0s-6.436 1.299-6.507 1.073z"/></g><path d="M403.703 110.536c-12.036 5.232-20.862 15.882-23.768 28.68-3.952 16.118-20.9 82.016-17.417 91.868s71.233 19.534 71.233 19.534l8.031-33.875-34.41-9.414.875-44.36c.437-12.999-4.544-52.433-4.544-52.433z" class="D"/><path d="M440.894 221.5l12.053 3.162-7.156 26.111-11.855-.523z" class="G"/><path d="M523.856 244.139l-10.854-11.531-22.356-5.646-20.973 6.125c-.494-.015-17.826-4.742-17.826-4.742l-6.055 22.2 31.22 2.145 35.652-1.411s1.849-1.736.748-2.922 5.97 2 6.8 2.047 2.442.677 3.543-.663c.75-.916 1.767-3.852.101-5.602z" class="J"/><g fill="#eb996e"><path d="M513.412 248.344a19.4 19.4 0 0 1-3.543-1.044l-8.468-2.47-8.652-1.948a19 19 0 0 1-3.6-.833 15.34 15.34 0 0 1 3.7.282 77.72 77.72 0 0 1 8.751 1.722 74.37 74.37 0 0 1 8.468 2.71c1.179.381 2.303.912 3.345 1.581zm10.443-4.205a46.29 46.29 0 0 1-4.954-1.595c-3.034-1.03-7.3-2.286-12.025-3.6s-8.92-2.823-12.11-2.992a30.09 30.09 0 0 0-5.152.2c.438-.236.917-.39 1.411-.452a14.86 14.86 0 0 1 3.839-.311c3.3 0 7.636 1.411 12.307 2.823s8.977 2.668 12 3.839l3.529 1.411a4.77 4.77 0 0 1 1.157.677z"/></g><g class="B"><path d="M362.265 227.54a10.98 10.98 0 0 0 .169 1.595 7.5 7.5 0 0 0 2.357 3.853c2.95 2.738 8.567 5.025 15.695 6.309h0c3.26 1.073 6.972 1.919 10.938 2.823l12.7 2.724 29.555 5.759-.452.3 2.385-9.88 5.49-22.427.268.466-30.571-8.737h0a30.19 30.19 0 0 0-13.338-2.329 29.64 29.64 0 0 0-10.063 2.357 33.76 33.76 0 0 0-5.787 3.2l-1.411 1.03-.494.325c.134-.149.28-.286.438-.409a15.25 15.25 0 0 1 1.411-1.087c1.794-1.329 3.725-2.464 5.758-3.387a29.37 29.37 0 0 1 10.176-2.541 30.71 30.71 0 0 1 13.606 2.258h0l30.613 8.6.367.1-.085.367-5.462 22.441-2.4 9.88-.1.367h-.367l-29.555-5.857-12.7-2.823c-3.935-.96-7.664-1.807-10.981-2.936h0c-7.2-1.411-12.844-3.754-15.808-6.634a7.45 7.45 0 0 1-2.315-4.037c-.114-.55-.126-1.116-.037-1.67z"/><path d="M409.241 209.584c-.1.1-1.242-.96-3.317-2.343a31.7 31.7 0 0 0-18.348-5.335l-4.051.2a12.25 12.25 0 0 1 4.022-.762c6.674-.476 13.297 1.451 18.673 5.434a12.7 12.7 0 0 1 3.021 2.806z"/><path d="M413.739 154.402a9.33 9.33 0 0 1 0 2.061c0 1.327-.141 3.246-.325 5.646-.381 4.728-1.087 11.291-2.329 18.348-.978 6.12-2.393 12.162-4.234 18.08-.381 1.115-.776 2.131-1.1 3.02l-.988 2.216c-.287.63-.642 1.226-1.059 1.778a11.67 11.67 0 0 1 .776-1.905l.847-2.258c.311-.847.635-1.905.974-3.034a157.09 157.09 0 0 0 4.023-18.023c1.242-7.057 2.032-13.62 2.555-18.348l.579-5.646c.028-.653.123-1.301.282-1.934zm31.079-15.935s-.155-.4-.508-1.087a6.52 6.52 0 0 0-2.216-2.413 5.5 5.5 0 0 0-4.785-.706 6.2 6.2 0 0 0-4.037 4.573l-.2 1.044-.452-.96a103.16 103.16 0 0 1-4.5-11.362 59.63 59.63 0 0 1-3.317-20.07c0-1.313.184-2.484.254-3.528a16.27 16.27 0 0 1 .466-2.611 12.03 12.03 0 0 1 .663-2.174c-.514 2.747-.798 5.533-.847 8.327a63.82 63.82 0 0 0 3.514 19.76 112.24 112.24 0 0 0 4.4 11.291l-.663.085a6.76 6.76 0 0 1 4.545-5 5.93 5.93 0 0 1 5.194.917 6.38 6.38 0 0 1 2.174 2.653 5.36 5.36 0 0 1 .282.875c.047.273.047.386.033.386zm36.54 3.317a13.85 13.85 0 0 1-.311-1.75 18.73 18.73 0 0 1-.3-4.94c.301-2.502 1.494-4.812 3.359-6.507a6.1 6.1 0 0 1 4.037-1.538c1.646-.013 3.207.731 4.234 2.018l-.607.367-1.327-3.514-6.549-17.784-1.905-5.42a11.61 11.61 0 0 1-.607-2.032 13.58 13.58 0 0 1 .875 1.92q.826 2.117 2.117 5.335l6.746 17.713 1.313 3.514.847 2.272-1.411-1.891a4.77 4.77 0 0 0-3.712-1.778 5.64 5.64 0 0 0-3.656 1.341 10.26 10.26 0 0 0-3.274 6.055 22.45 22.45 0 0 0 .085 4.827 6.93 6.93 0 0 1 .046 1.792zm25.011 3.642c.2 0 3.345 20.578 7.057 46.011l6.309 46.11c-.198.028-3.345-20.564-7.057-46.011l-6.309-46.11z"/></g><g class="C"><path d="M428.572 127.797c.188 5.716 1.433 11.348 3.67 16.612 1.595-1.976 3.373-4.065 5.815-4.658 3.034-.72 6.111 1.157 8.3 3.43-.381-2.289-1.29-4.459-2.653-6.337a7.4 7.4 0 0 0-5.829-3.049 5.15 5.15 0 0 0-4.912 3.994l-4.234-9.88"/></g><path d="M413.626 136.704c-.141 0-.1-1.538-.536-3.938a23.8 23.8 0 0 0-3.585-8.751 24.6 24.6 0 0 0-3.359-3.994 21.64 21.64 0 0 0-3.373-2.625c-2.061-1.313-3.514-1.807-3.472-1.948a3.23 3.23 0 0 1 1.059.254c.406.125.803.281 1.186.466a12.71 12.71 0 0 1 1.51.762c1.28.724 2.478 1.585 3.571 2.569a23.73 23.73 0 0 1 3.528 4.093c1.824 2.731 3.011 5.837 3.472 9.089.141.977.189 1.964.141 2.95-.043.691-.086 1.073-.142 1.073z" class="B"/><g class="C"><path d="M507.639 154.586l9.442 66.533.466 1.059a142.55 142.55 0 0 0-9.908-67.592z"/></g><path d="M560.044 192.82l-30.7 53.633-75.665 1.651-.184 3.416 73.251-.536 2.332-.086 77.359.155 15.638-26.955 19.971-28.623c.608-.865.681-1.997.191-2.933s-1.463-1.52-2.52-1.513l-77.231.3c-1.024.017-1.959.588-2.442 1.491z" class="E"/><path d="M622.075 224.167s3.966 3.641 3.345 6.732-.423 5.406-3.345 5.646a4.46 4.46 0 0 1-3.98 4.6c0 0 .9 4.855-4.756 5.646 0 0-1.722 5.194-5.293 3.938a31.32 31.32 0 0 1-5.857-2.724l-1.044-1.891s-5.236-1.962-3.952-4.926c.79-1.792 3.5-2.258 3.5-2.258a5.08 5.08 0 0 1 .339-4.6c1.256-1.694 5.349-.3 5.349-.3-.087-1.449.371-2.879 1.284-4.008 1.411-1.651 7.918 2.823 7.918 2.823l3.543-4.234z" fill="#c78976"/><g fill="#8b5d54"><path d="M613.342 246.806a36.16 36.16 0 0 1-6.521-3.613 35.37 35.37 0 0 1-6.125-4.234 70.57 70.57 0 0 1 12.7 7.861zm4.752-5.688c-2.128-.845-4.158-1.917-6.055-3.2a31.16 31.16 0 0 1-5.645-3.867 31.15 31.15 0 0 1 6.055 3.2 30.32 30.32 0 0 1 5.646 3.867zm-6.478-10.656c.127-.212 2.555 1.059 5.377 2.823a46.73 46.73 0 0 1 5.053 3.359c-.113.24-2.639-.9-5.462-2.71a29.81 29.81 0 0 1-4.968-3.472z"/></g><path d="M642.045 193.13a1.16 1.16 0 0 1-.367 0h-5.321l-15.356.127-50.683.113h-3.7c-1.115-.119-2.203.393-2.823 1.327l-3.444 6.2-6.521 11.771-11.079 19.915-7.523 13.394-2.089 3.613-.55.932c-.064.112-.139.216-.226.311a2.15 2.15 0 0 1 .155-.353l.494-.96 1.948-3.7 7.325-13.507 10.938-19.985 6.478-11.8 3.458-6.252a3.81 3.81 0 0 1 3.444-1.68h3.7l50.683.113 15.356.127h5.321z" class="B"/><path d="M587.608 220.131a3.26 3.26 0 0 0 5.196 3.928 3.26 3.26 0 0 0-.313-4.493c-1.506-1.187-3.688-.934-4.883.565z" class="G"/><path d="M476.193 102.801l-.423-12.18s16.174-3.543 15.37-19.887c-.381-7.9-2.512-24.092-4.6-38.715-2.276-15.711-16.224-27.048-32.068-26.068l-1.567.1c-16.933 2.031-24.657 17.557-22.159 34.423l3.966 64.275a20.78 20.78 0 0 0 21.34 19.477h0a20.79 20.79 0 0 0 20.141-21.425z" class="J"/><path d="M475.77 90.635a39.52 39.52 0 0 1-21.651-4.968c0 0 5.519 11.573 21.735 9.1z" fill="#eb996e"/><g class="B"><path d="M484.464 47.366c.091 1.264-.839 2.372-2.1 2.5a2.23 2.23 0 0 1-2.526-1.962c-.055-1.256.89-2.331 2.142-2.438 1.206-.143 2.306.699 2.484 1.9zm-.946-7.145c-.268.325-2.117-.875-4.629-.72s-4.234 1.538-4.559 1.242.113-.692.889-1.327a6.41 6.41 0 0 1 7.339-.423c.804.55 1.101 1.086.96 1.228zm-23.486 8.143c.082 1.264-.856 2.364-2.117 2.484a2.22 2.22 0 0 1-1.677-.437 2.21 2.21 0 0 1-.849-1.511c-.091-1.264.839-2.372 2.1-2.5a2.26 2.26 0 0 1 2.54 1.962zm-1.157-6.153c-.268.325-2.117-.875-4.629-.72s-4.234 1.538-4.559 1.242.113-.692.889-1.327a6.31 6.31 0 0 1 3.627-1.411 6.18 6.18 0 0 1 3.7.946c.816.592 1.155 1.13.972 1.27zm10.261 18.051a16.57 16.57 0 0 1 4.022-.988c.649-.1 1.242-.268 1.327-.706.006-.666-.185-1.319-.55-1.877l-2.174-4.771c-3.063-6.789-5.321-12.378-5.053-12.5s2.974 5.285 6.041 12.063l2.117 4.8a3.77 3.77 0 0 1 .494 2.5 1.61 1.61 0 0 1-1 1 4.43 4.43 0 0 1-1.078.222 16.95 16.95 0 0 1-4.146.257zm-7.257 2.145c.409 0 .579 2.682 3.034 4.474s5.335 1.313 5.377 1.694c0 .169-.621.565-1.835.677-1.597.117-3.184-.328-4.488-1.256a5.98 5.98 0 0 1-2.371-3.768c-.194-1.087.074-1.821.283-1.821zm-2.962-30.077c-.2.706-2.724.536-5.646 1.073s-5.264 1.411-5.646.889c-.2-.282.183-.946 1.1-1.665 1.224-.907 2.647-1.507 4.15-1.75a9.67 9.67 0 0 1 4.488.254c1.06.367 1.695.875 1.554 1.199zm23.232.678c-.409.607-2.174.113-4.234.212s-3.825.621-4.234 0c-.2-.282 0-.875.79-1.411.98-.729 2.166-1.129 3.387-1.143 1.222-.058 2.431.268 3.458.932.734.549 1.017 1.17.833 1.41zm2.316-8.384s-4.94-9.964-10.021-12.053c-6.14-2.526-8.313 4.234-14.114 2.95s-11.658-3.656-17.2 1.1c-6.069 5.208-2.823 8.4-2.823 15.666.212 29.484-4.643 38.108-7.057 24.375-.268-1.51-4.545-2.456-5.561-8.821-1.327-8.257-2.272-18.348-.776-24.332 1.256-5.067 3.881-8.666 8.722-12.7 7.65-6.464 18.659-7.269 26.2-7.057s22.63 8.014 22.63 20.872z"/></g><path d="M434.345 56.155a4.43 4.43 0 0 0-5.039-3.98c-3.034.48-6.323 2.413-5.73 8.708 1.044 11.136 12.025 7.791 12.011 7.466s-.762-7.537-1.242-12.194z" class="J"/><path d="M432.764 64.383c-.156.125-.321.239-.494.339-.432.233-.936.294-1.411.169-1.228-.325-2.385-2.1-2.639-4.107-.113-.952-.01-1.916.3-2.823a2.27 2.27 0 0 1 1.312-1.637c.45-.158.949.018 1.2.423.169.311.127.536.184.55s.226-.212.1-.663a1.41 1.41 0 0 0-.508-.663 1.51 1.51 0 0 0-1.1-.183c-.914.27-1.621.998-1.863 1.92-.388 1.011-.519 2.102-.381 3.176.282 2.23 1.623 4.234 3.274 4.545a2.1 2.1 0 0 0 1.75-.466c.291-.295.319-.566.276-.58z" fill="#8b5d54"/><path d="M433.243 34.504c1.433 1.029 3.103 1.679 4.855 1.891a3.63 3.63 0 0 0 3.881-2.823c.085-.776-.155-1.68.31-2.3s1.708-.607 2.653-.565c3.37.043 6.311-2.275 7.057-5.561 1.11 1.081 2.861 1.136 4.037.127 1.097-1.011 2.047-2.17 2.823-3.444.807-1.285 2.196-2.088 3.712-2.145.807.216 1.635.344 2.47.381 1.411-.226 2.061-1.976 2.2-3.444s.2-3.19 1.411-4.051 2.625-.48 3.994-.353 3.091-.311 3.345-1.651c.074-.723-.15-1.446-.621-2a7.24 7.24 0 0 0-8.708-2.2 9.88 9.88 0 0 0-18.122-.79 9.95 9.95 0 0 0-15.666 4.615c-2.842-.562-5.745.629-7.375 3.024s-1.671 5.533-.105 7.971a6.86 6.86 0 0 0-3.444 5.646c.113 2.315 2.5 4.488 4.7 3.74-.998 1.972-.208 4.38 1.764 5.377s4.38.208 5.377-1.764" class="B"/><path d="M467.711 9.607v.2c.011.202.011.405 0 .607a7.28 7.28 0 0 1-.677 2.2c-.544 1.107-1.336 2.073-2.315 2.823a7.55 7.55 0 0 1-4.5 1.581l.169-.254a3.98 3.98 0 0 1 0 3.091 11.29 11.29 0 0 1-1.736 2.822c-.339.511-.731.984-1.171 1.411a3.88 3.88 0 0 1-1.736.776 4.08 4.08 0 0 1-3.67-1.073l.409-.141a8.47 8.47 0 0 1-3.19 6.013 6.11 6.11 0 0 1-3.6 1.411 11.29 11.29 0 0 1-3.67-.565l.3-.155a8.85 8.85 0 0 1-2.428 3.613 4.74 4.74 0 0 1-3.825 1.3 6.18 6.18 0 0 1-5.039-4.531l.268.113a5.76 5.76 0 0 1-3.811.79 6.14 6.14 0 0 1-2.823-1.03 5.49 5.49 0 0 1-1.327-1.284l-.325-.55c.484.66 1.082 1.228 1.764 1.68.806.509 1.719.823 2.668.917a5.42 5.42 0 0 0 3.585-.819l.212-.127v.24a5.8 5.8 0 0 0 4.756 4.234c1.282.145 2.56-.302 3.472-1.214a8.37 8.37 0 0 0 2.272-3.43l.085-.212h.212a10.5 10.5 0 0 0 3.5.55c1.22-.072 2.384-.537 3.317-1.327a7.9 7.9 0 0 0 3.02-5.646v-.522l.367.381a3.77 3.77 0 0 0 4.785.282c.41-.389.778-.819 1.1-1.284a10.74 10.74 0 0 0 1.708-2.738 3.67 3.67 0 0 0 .071-2.823l-.1-.254h.268a7.27 7.27 0 0 0 4.319-1.411c.954-.702 1.74-1.609 2.3-2.653.519-.927.864-1.941 1.016-2.992z" class="I"/><g class="B"><path d="M473.286 49.338a18.04 18.04 0 0 1-.734-2.611c-.412-2.416-.004-4.899 1.157-7.057a10.77 10.77 0 0 1 3.331-3.74 10.98 10.98 0 0 1 5.377-1.948 10.64 10.64 0 0 1 3.119.2c1.066.216 2.091.602 3.035 1.143a10.84 10.84 0 0 1 5.363 11.644c-.212 1.07-.593 2.099-1.129 3.049a9.88 9.88 0 0 1-1.863 2.484 11.01 11.01 0 0 1-4.982 2.823 11.18 11.18 0 0 1-5.01.085 11.03 11.03 0 0 1-6.154-3.754 19.15 19.15 0 0 1-1.51-2.258 4.95 4.95 0 0 0 .282.649 4.77 4.77 0 0 0 .423.748 7.44 7.44 0 0 0 .663.96c2.697 3.43 7.155 4.96 11.39 3.91a11.29 11.29 0 0 0 5.18-2.823c.78-.755 1.437-1.626 1.948-2.583a10.13 10.13 0 0 0 1.172-3.162 11.29 11.29 0 0 0-5.564-12.113 10.98 10.98 0 0 0-3.161-1.171 10.46 10.46 0 0 0-3.232-.183 11.15 11.15 0 0 0-8.948 5.942 11 11 0 0 0-1.059 7.3c.073.388.173.77.3 1.143a4.67 4.67 0 0 0 .3.8 3.79 3.79 0 0 0 .306.523zm-28.807 1.694a25.41 25.41 0 0 1-.734-2.611 11.09 11.09 0 0 1 1.171-7.057 10.74 10.74 0 0 1 3.317-3.74 10.88 10.88 0 0 1 5.391-2.032 10.08 10.08 0 0 1 3.105.2 10.4 10.4 0 0 1 3.049 1.143 10.86 10.86 0 0 1-7.622 20.084c-2.422-.516-4.597-1.84-6.168-3.754a19.94 19.94 0 0 1-1.51-2.244 4.24 4.24 0 0 0 .3.649 4.56 4.56 0 0 0 .409.748 7.65 7.65 0 0 0 .677.96 11.01 11.01 0 0 0 6.224 3.952 11.15 11.15 0 0 0 10.331-2.936c.784-.749 1.446-1.616 1.962-2.569a10.98 10.98 0 0 0 1.171-3.176c.989-4.837-1.304-9.751-5.646-12.1a10.58 10.58 0 0 0-3.161-1.171c-1.061-.229-2.152-.29-3.232-.183a11.29 11.29 0 0 0-5.561 2.047 11.11 11.11 0 0 0-3.387 3.9 10.97 10.97 0 0 0-1.044 7.3 6.51 6.51 0 0 0 .3 1.129c.073.282.173.557.3.819a4.89 4.89 0 0 0 .358.642z"/><path d="M465.523 44.059a7.61 7.61 0 0 1 6.831-.353 2.8 2.8 0 0 0-.9-.607c-1.646-.729-3.54-.629-5.1.268-.591.283-.873.593-.831.692zm-32.194 9.147a35.13 35.13 0 0 0 5.194-2.442c1.738-.809 3.41-1.753 5-2.823a36.97 36.97 0 0 0-5.194 2.442 39.7 39.7 0 0 0-5 2.823z"/></g><g class="D"><path d="M273.757 502.621c-7.005 17.239-23.709 28.557-42.317 28.672s-35.45-10.996-42.667-28.148-3.386-36.962 9.706-50.185 32.862-17.254 50.085-10.21c23.468 9.598 34.738 36.381 25.193 59.871z"/><path d="M263.623 498.529c-5.34 13.138-18.071 21.763-32.253 21.849s-27.017-8.383-32.516-21.455-2.577-28.17 7.401-38.247 25.047-13.147 38.173-7.776c17.884 7.317 26.47 27.729 19.195 45.63z"/></g><path d="M263.622 498.529c.037-.187.089-.371.155-.55l.522-1.581.381-1.157.339-1.411a23.54 23.54 0 0 0 .692-3.613c.468-3.332.43-6.715-.113-10.035-2.541-16.457-16.387-28.807-33.027-29.456a36.02 36.02 0 0 0-4.926.113c-.833.1-1.651.254-2.484.381-.84.115-1.671.294-2.484.536-1.669.429-3.309.962-4.912 1.595a38.46 38.46 0 0 0-4.658 2.428c-3.095 1.856-5.869 4.201-8.214 6.944a34.38 34.38 0 0 0-8.271 20.225c-.248 3.6.081 7.216.974 10.712a32.46 32.46 0 0 0 4.008 9.583c1.698 2.875 3.837 5.465 6.337 7.678 12.336 11.169 30.847 12.061 44.2 2.131 2.696-1.981 5.076-4.361 7.057-7.057a25.59 25.59 0 0 0 2.047-3.049c.282-.466.55-.875.762-1.27a18.96 18.96 0 0 0 .536-1.1l.748-1.482c.077-.175.167-.345.268-.508-.049.185-.116.364-.2.536l-.677 1.524-.508 1.115c-.212.409-.48.833-.734 1.3a26.47 26.47 0 0 1-2.018 3.105c-1.965 2.762-4.346 5.205-7.057 7.24-3.588 2.739-7.678 4.748-12.039 5.914a35.06 35.06 0 0 1-16.245.536 35.61 35.61 0 0 1-16.612-8.4 38.7 38.7 0 0 1-3.514-3.613c-1.089-1.338-2.08-2.753-2.964-4.234a41.86 41.86 0 0 1-2.442-4.672 38.6 38.6 0 0 1-1.665-5.109c-.928-3.562-1.271-7.252-1.016-10.924a34.85 34.85 0 0 1 8.454-20.663c2.398-2.787 5.228-5.17 8.384-7.057a40.1 40.1 0 0 1 4.771-2.456c1.631-.655 3.305-1.197 5.01-1.623.827-.247 1.671-.43 2.526-.55.847-.113 1.694-.282 2.54-.367a36.09 36.09 0 0 1 22.766 5.533c8.475 5.523 14.177 14.412 15.666 24.417a33.66 33.66 0 0 1 0 10.148 25.4 25.4 0 0 1-.762 3.627c-.127.522-.24 1-.367 1.411l-.423 1.157-.593 1.553a2.82 2.82 0 0 1-.218.495z" class="B"/><g class="C"><path d="M263.242 498.712c-.212-.071.24-1.553.734-4.234.699-3.786.804-7.657.31-11.475-.335-2.604-.95-5.164-1.835-7.636a35 35 0 0 0-4.135-7.932c-1.884-2.704-4.152-5.119-6.732-7.17a33.75 33.75 0 0 0-14.326-6.634 32.47 32.47 0 0 0-5.166-.621c-1.676-.083-3.357-.032-5.025.155-1.604.163-3.194.446-4.756.847-2.906.737-5.705 1.847-8.327 3.3-2.289 1.291-4.433 2.824-6.394 4.573a37.64 37.64 0 0 0-7.226 8.892c-1.411 2.357-2.018 3.768-2.216 3.7s.155-1.595 1.3-4.234a32.55 32.55 0 0 1 6.859-9.8c1.988-1.957 4.2-3.672 6.591-5.109a35.86 35.86 0 0 1 8.807-3.768 34.26 34.26 0 0 1 5.1-1 32.61 32.61 0 0 1 5.406-.24 34.6 34.6 0 0 1 5.646.635 36.36 36.36 0 0 1 5.561 1.567 36.81 36.81 0 0 1 5.222 2.456 34.87 34.87 0 0 1 4.643 3.161 35.27 35.27 0 0 1 3.924 3.726 34.7 34.7 0 0 1 3.2 4.107c3.335 5.002 5.337 10.774 5.815 16.767.325 4.008-.091 8.042-1.228 11.9-.835 2.768-1.611 4.127-1.752 4.067z"/></g><path d="M315.605 560.178h88.297v16.033h-88.297z" class="D"/><g class="B"><use xlink:href="#G"/><use xlink:href="#H"/><use xlink:href="#I"/><path d="M330.029 576.324a86.36 86.36 0 0 1 0-15.906c.489 5.291.489 10.615 0 15.906zm15.441 0a86.36 86.36 0 0 1 0-15.906c.489 5.291.489 10.615 0 15.906z"/><use xlink:href="#J"/><path d="M356.027 576.324a86.36 86.36 0 0 1 0-15.906c.489 5.291.489 10.615 0 15.906zm-4.785 0a86.36 86.36 0 0 1 0-15.906c.508 5.29.508 10.616 0 15.906zm15.441 0a86.36 86.36 0 0 1 0-15.906c.489 5.291.489 10.615 0 15.906zm-4.827 0a86.36 86.36 0 0 1 0-15.906 86.36 86.36 0 0 1 0 15.906zm15.441 0a86.36 86.36 0 0 1 0-15.906c.489 5.291.489 10.615 0 15.906zm-4.827 0c-.489-5.291-.489-10.615 0-15.906a86.37 86.37 0 0 1 0 15.906zm15.443 0a86.36 86.36 0 0 1 0-15.906 86.36 86.36 0 0 1 0 15.906zm-4.844 0c-.489-5.291-.489-10.615 0-15.906a86.37 86.37 0 0 1 0 15.906zm15.441 0a86.36 86.36 0 0 1 0-15.906 86.37 86.37 0 0 1 0 15.906zm-4.827 0c-.489-5.291-.489-10.615 0-15.906a86.36 86.36 0 0 1 0 15.906z"/><path d="M403.887 560.178c0 .212-19.9.367-44.445.367s-44.459-.155-44.459-.367 19.9-.367 44.459-.367l44.445.367z"/></g><path d="M308.675 576.085h88.297v16.033h-88.297z" class="D"/><g class="B"><use xlink:href="#K"/><path d="M312.499 592.231a86.36 86.36 0 0 1 0-15.906c.489 5.291.489 10.615 0 15.906zm15.441 0c-.489-5.291-.489-10.615 0-15.906.489 5.291.489 10.615 0 15.906zm-4.827 0c-.489-5.291-.489-10.615 0-15.906.489 5.291.489 10.615 0 15.906zm15.441 0c-.489-5.291-.489-10.615 0-15.906.489 5.291.489 10.615 0 15.906zm-4.838 0c-.489-5.291-.489-10.615 0-15.906a86.37 86.37 0 0 1 0 15.906zm15.437 0c-.489-5.291-.489-10.615 0-15.906.489 5.291.489 10.615 0 15.906zm-4.827 0a86.36 86.36 0 0 1 0-15.906c.489 5.291.489 10.615 0 15.906z"/><use xlink:href="#L"/><use xlink:href="#M"/><path d="M370.381 592.231a86.37 86.37 0 0 1 0-15.906 86.36 86.36 0 0 1 0 15.906zm-4.841 0c-.489-5.291-.489-10.615 0-15.906.489 5.291.489 10.615 0 15.906zm15.44 0a86.37 86.37 0 0 1 0-15.906 86.36 86.36 0 0 1 0 15.906zm-4.827 0c-.489-5.291-.489-10.615 0-15.906.489 5.291.489 10.615 0 15.906zm15.441 0a86.37 86.37 0 0 1 0-15.906 86.36 86.36 0 0 1 0 15.906zm-4.827 0a86.37 86.37 0 0 1 0-15.906c.489 5.291.489 10.615 0 15.906z"/><path d="M396.957 576.155c0 .212-19.858.367-44.346.367s-44.36-.155-44.36-.367 19.858-.367 44.36-.367l44.346.367z"/></g><path d="M303.001 592.231h88.297v16.033h-88.297z" class="D"/><g class="B"><path d="M311.653 608.377c-.489-5.291-.489-10.615 0-15.906a86.37 86.37 0 0 1 0 15.906zm-4.827 0a86.37 86.37 0 0 1 0-15.906 86.36 86.36 0 0 1 0 15.906zm15.44 0c-.489-5.291-.489-10.615 0-15.906.489 5.291.489 10.615 0 15.906zm-4.827 0c-.489-5.291-.489-10.615 0-15.906a86.36 86.36 0 0 1 0 15.906z"/><use xlink:href="#N"/><path d="M328.053 608.377c-.489-5.291-.489-10.615 0-15.906a86.36 86.36 0 0 1 0 15.906zm15.427 0c-.489-5.291-.489-10.615 0-15.906.489 5.291.489 10.615 0 15.906zm-4.824 0a86.37 86.37 0 0 1 0-15.906 86.36 86.36 0 0 1 0 15.906zm15.437 0c-.489-5.291-.489-10.615 0-15.906.489 5.291.489 10.615 0 15.906zm-4.827 0c-.489-5.291-.489-10.615 0-15.906a86.36 86.36 0 0 1 0 15.906zm15.441 0a86.37 86.37 0 0 1 0-15.906c.489 5.291.489 10.615 0 15.906zm-4.841 0a86.37 86.37 0 0 1 0-15.906 83.19 83.19 0 0 1 0 15.906zm15.44 0a86.37 86.37 0 0 1 0-15.906c.489 5.291.489 10.615 0 15.906zm-4.826 0c-.489-5.291-.489-10.615 0-15.906.489 5.291.489 10.615 0 15.906zm15.44 0c-.489-5.291-.489-10.615 0-15.906.489 5.291.489 10.615 0 15.906zm-4.827 0c-.489-5.291-.489-10.615 0-15.906a86.36 86.36 0 0 1 0 15.906z"/><path d="M391.312 592.234c0 .212-19.858.367-44.346.367s-44.36-.155-44.36-.367 19.858-.367 44.36-.367l44.346.367z"/></g><g class="C"><path d="M320.742 576.254c13.367 3.052 27.121 4.052 40.789 2.964 13.549-.9 27.226-2.893 40.8-2.724z"/><path d="M304.088 592.443a135.08 135.08 0 0 0 40.789 2.964c13.549-.9 27.226-2.893 40.8-2.724z"/></g><g class="G"><ellipse cx="317.552" cy="561.138" rx="1.115" ry=".367"/><use xlink:href="#O"/><path d="M344.933 561.183c-3.36.489-6.774.489-10.134 0a35.16 35.16 0 0 1 10.134 0z"/></g><g class="D"><path d="M673.947 546.406c6.571 17.409 2.003 37.061-11.573 49.787s-33.482 16.015-50.43 8.333-27.596-24.82-26.974-43.417 12.389-34.987 29.812-41.52c23.743-8.903 50.212 3.094 59.166 26.817z"/><path d="M663.711 550.257c5.013 13.266 1.537 28.246-8.807 37.948s-25.515 12.214-38.434 6.363-21.038-18.911-20.568-33.085 9.436-26.668 22.714-31.65c18.091-6.788 38.263 2.348 45.094 20.423z"/></g><path d="M663.711 550.257a4.05 4.05 0 0 1-.268-.508l-.692-1.51-.508-1.115c-.2-.409-.466-.819-.72-1.284-.58-1.085-1.235-2.127-1.962-3.119a33.3 33.3 0 0 0-6.916-7.283c-13.045-10.34-31.587-9.991-44.233.833a35.3 35.3 0 0 0-3.529 3.444c-.55.635-1.044 1.313-1.581 1.962-.515.665-.986 1.363-1.411 2.089-.931 1.446-1.77 2.949-2.512 4.5a39.68 39.68 0 0 0-1.764 4.954 33.25 33.25 0 0 0-1.3 10.67 34.24 34.24 0 0 0 7.678 20.465 33.28 33.28 0 0 0 8 7.184c1.472.954 3.004 1.812 4.587 2.569 1.555.704 3.153 1.308 4.785 1.807a38.1 38.1 0 0 0 4.94 1.059c1.639.194 3.289.284 4.94.268 16.673-.173 30.881-12.149 33.873-28.553.638-3.306.776-6.688.409-10.035a27.18 27.18 0 0 0-.579-3.627c-.113-.522-.183-1.016-.3-1.411l-.353-1.171-.48-1.595a2.82 2.82 0 0 1-.127-.55 3.17 3.17 0 0 1 .2.522l.55 1.581.381 1.171c.127.438.226.917.339 1.411a24.53 24.53 0 0 1 .649 3.656 32.89 32.89 0 0 1-.282 10.134c-1.76 9.978-7.723 18.717-16.372 23.994a35.85 35.85 0 0 1-22.921 4.869 37.22 37.22 0 0 1-5.039-1.058c-1.693-.485-3.352-1.079-4.968-1.778a40.14 40.14 0 0 1-4.686-2.6 34.09 34.09 0 0 1-8.172-7.325 37.56 37.56 0 0 1-5.646-9.809 37.97 37.97 0 0 1-2.2-11.094c-.143-3.682.31-7.363 1.341-10.9a31.4 31.4 0 0 1 4.39-9.64 15.81 15.81 0 0 1 1.482-2.117c.536-.677 1.044-1.411 1.609-2 1.119-1.251 2.327-2.421 3.613-3.5 12.874-10.996 31.753-11.268 44.939-.649 2.661 2.115 4.979 4.629 6.873 7.452.725 1 1.367 2.057 1.919 3.162.254.48.508.9.706 1.313l.466 1.143.635 1.538a2.9 2.9 0 0 1 .217.481z" class="B"/><g class="C"><path d="M663.584 550.75c-.2.085-.875-1.313-2.343-3.627a37.7 37.7 0 0 0-7.523-8.652 36.7 36.7 0 0 0-6.535-4.347c-2.681-1.364-5.527-2.374-8.468-3.006-1.575-.354-3.175-.585-4.785-.692a31.62 31.62 0 0 0-5.039 0c-1.73.134-3.448.398-5.138.79a38.1 38.1 0 0 0-5.1 1.637 36.98 36.98 0 0 0-4.771 2.442 32.8 32.8 0 0 0-4.234 3.049 31.27 31.27 0 0 0-3.571 3.528 32.34 32.34 0 0 0-2.922 3.867c-1.624 2.515-2.919 5.228-3.853 8.073a35.73 35.73 0 0 0-1.595 7.706 37.9 37.9 0 0 0 .748 11.432c.593 2.682 1.087 4.135.889 4.234s-.96-1.27-1.891-3.952c-1.229-3.84-1.738-7.875-1.5-11.9.152-2.788.625-5.549 1.411-8.228a35.59 35.59 0 0 1 3.91-8.751 33.63 33.63 0 0 1 3.049-4.234 32.8 32.8 0 0 1 3.811-3.867 35.86 35.86 0 0 1 4.517-3.331 35.4 35.4 0 0 1 10.656-4.375 34.62 34.62 0 0 1 10.966-.776c4.955.423 9.765 1.888 14.114 4.3 2.428 1.364 4.692 3.003 6.747 4.883a32.7 32.7 0 0 1 7.184 9.555c1.054 2.605 1.393 4.129 1.266 4.242z"/></g><path d="M719.023 560.094h88.297v16.033h-88.297z" class="D"/><g class="B"><path d="M727.675 576.244c-.489-5.291-.489-10.615 0-15.906a86.35 86.35 0 0 1 0 15.906zm-4.827 0c-.489-5.291-.489-10.615 0-15.906.489 5.291.489 10.615 0 15.906zm15.441 0c-.489-5.291-.489-10.615 0-15.906a86.35 86.35 0 0 1 0 15.906zm-4.827 0c-.489-5.291-.489-10.615 0-15.906a86.35 86.35 0 0 1 0 15.906zm15.44 0c-.489-5.291-.489-10.615 0-15.906a86.35 86.35 0 0 1 0 15.906zm-4.841 0c-.489-5.291-.489-10.615 0-15.906a86.36 86.36 0 0 1 0 15.906zm15.441 0c-.489-5.291-.489-10.615 0-15.906.489 5.291.489 10.615 0 15.906zm-4.827 0c-.489-5.291-.489-10.615 0-15.906a86.36 86.36 0 0 1 0 15.906zm15.444 0c-.489-5.291-.489-10.615 0-15.906.489 5.291.489 10.615 0 15.906zm-4.788 0c-.489-5.291-.489-10.615 0-15.906a86.35 86.35 0 0 1 0 15.906zm15.398 0a83.18 83.18 0 0 1 0-15.906 86.36 86.36 0 0 1 0 15.906z"/><use xlink:href="#P"/><path d="M791.329 576.244c-.489-5.291-.489-10.615 0-15.906.489 5.291.489 10.615 0 15.906zm-4.827 0a86.35 86.35 0 0 1 0-15.906 86.36 86.36 0 0 1 0 15.906zm15.441 0c-.489-5.291-.489-10.615 0-15.906.489 5.291.489 10.615 0 15.906zm-4.827 0a86.35 86.35 0 0 1 0-15.906 86.36 86.36 0 0 1 0 15.906z"/><path d="M807.32 560.094c0 .212-19.9.367-44.459.367s-44.459-.155-44.459-.367 19.9-.367 44.459-.367l44.459.367z"/></g><path d="M712.107 576h88.297v16.033h-88.297z" class="D"/><g class="B"><path d="M720.759 592.146c-.489-5.291-.489-10.615 0-15.906.489 5.291.489 10.615 0 15.906zm-4.827 0c-.489-5.291-.489-10.615 0-15.906.489 5.291.489 10.615 0 15.906zm15.441 0c-.489-5.291-.489-10.615 0-15.906.489 5.291.489 10.615 0 15.906zm-4.841 0c-.489-5.291-.489-10.615 0-15.906.489 5.291.489 10.615 0 15.906zm15.44 0c-.489-5.291-.489-10.615 0-15.906a86.38 86.38 0 0 1 0 15.906zm-4.869 0c-.489-5.291-.489-10.615 0-15.906.489 5.291.489 10.615 0 15.906zm15.526 0c-.489-5.291-.489-10.615 0-15.906.489 5.291.489 10.615 0 15.906zm-4.87 0c-.489-5.291-.489-10.615 0-15.906a86.34 86.34 0 0 1 0 15.906z"/><use xlink:href="#Q"/><path d="M758.359 592.146c-.489-5.291-.489-10.615 0-15.906a86.35 86.35 0 0 1 0 15.906zm15.44 0c-.489-5.291-.489-10.615 0-15.906.489 5.291.489 10.615 0 15.906zm-4.827 0c-.489-5.291-.489-10.615 0-15.906.489 5.291.489 10.615 0 15.906zm15.441 0c-.489-5.291-.489-10.615 0-15.906.489 5.291.489 10.615 0 15.906zm-4.827 0c-.489-5.291-.489-10.615 0-15.906.489 5.291.489 10.615 0 15.906zm15.384 0c-.489-5.291-.489-10.615 0-15.906.489 5.291.489 10.615 0 15.906zm-4.784 0a86.35 86.35 0 0 1 0-15.906c.489 5.291.489 10.615 0 15.906z"/><path d="M800.39 576.003c0 .212-19.844.367-44.346.367s-44.346-.215-44.346-.367 19.858-.367 44.346-.367l44.346.367z"/></g><path d="M706.434 592.146h88.297v16.033h-88.297z" class="D"/><g class="B"><path d="M715.085 608.292c-.489-5.291-.489-10.615 0-15.906.489 5.291.489 10.615 0 15.906zm-4.798 0a86.35 86.35 0 0 1 0-15.906c.489 5.291.489 10.615 0 15.906zm15.412 0c-.489-5.291-.489-10.615 0-15.906.489 5.291.489 10.615 0 15.906zm-4.827 0a83.2 83.2 0 0 1 0-15.906 86.37 86.37 0 0 1 0 15.906zm15.427 0c-.489-5.291-.489-10.615 0-15.906a86.35 86.35 0 0 1 0 15.906zm-4.841 0c-.489-5.291-.489-10.615 0-15.906.489 5.291.489 10.615 0 15.906zm15.525 0c-.489-5.291-.489-10.615 0-15.906.489 5.291.489 10.615 0 15.906zm-4.898 0c-.489-5.291-.489-10.615 0-15.906a86.35 86.35 0 0 1 0 15.906zm15.441 0c-.489-5.291-.489-10.615 0-15.906.489 5.291.489 10.615 0 15.906zm-4.897 0c-.489-5.291-.489-10.615 0-15.906.489 5.291.489 10.615 0 15.906zm15.525 0c-.489-5.291-.489-10.615 0-15.906.489 5.291.489 10.615 0 15.906zm-4.855 0c-.489-5.291-.489-10.615 0-15.906.489 5.291.489 10.615 0 15.906zm15.44 0c-.489-5.291-.489-10.615 0-15.906.489 5.291.489 10.615 0 15.906zm-4.827 0c-.489-5.291-.489-10.615 0-15.906.489 5.291.489 10.615 0 15.906zm15.413 0a83.19 83.19 0 0 1 0-15.906c.489 5.291.489 10.615 0 15.906zm-4.81 0c-.489-5.291-.489-10.615 0-15.906.489 5.291.489 10.615 0 15.906z"/><path d="M794.73 592.146c0 .212-19.858.367-44.36.367s-44.346-.155-44.346-.367 19.858-.367 44.346-.367l44.36.367z"/></g><g class="C"><path d="M724.104 576.155c13.362 3.052 27.112 4.052 40.775 2.964 13.549-.9 27.24-2.893 40.818-2.724z"/><path d="M707.464 592.358c13.362 3.052 27.112 4.052 40.775 2.964 13.549-.9 27.24-2.893 40.817-2.724z"/></g><g class="G"><ellipse cx="720.985" cy="561.053" rx="1.115" ry=".367"/><path d="M734.347 561.096a35.16 35.16 0 0 1-10.134 0 35.16 35.16 0 0 1 10.134 0zm14.047 0a35.16 35.16 0 0 1-10.134 0 35.16 35.16 0 0 1 10.134 0z"/></g><path d="M185.587 527.999h88.297v16.033h-88.297z" class="D"/><g class="B"><path d="M194.239 544.144a86.36 86.36 0 0 1 0-15.906c.489 5.291.489 10.615 0 15.906zm-4.757 0c-.489-5.291-.489-10.615 0-15.906.489 5.291.489 10.615 0 15.906zm15.373 0a86.36 86.36 0 0 1 0-15.906c.489 5.291.489 10.615 0 15.906zm-4.83 0c-.489-5.291-.489-10.615 0-15.906a86.37 86.37 0 0 1 0 15.906zm15.441 0c-.489-5.291-.489-10.615 0-15.906.489 5.291.489 10.615 0 15.906zm-4.813 0c-.489-5.291-.489-10.615 0-15.906a86.37 86.37 0 0 1 0 15.906zm15.413 0a86.36 86.36 0 0 1 0-15.906c.489 5.291.489 10.615 0 15.906zm-4.827 0c-.489-5.291-.489-10.615 0-15.906.489 5.291.489 10.615 0 15.906zm15.44 0c-.489-5.291-.489-10.615 0-15.906.489 5.291.489 10.615 0 15.906zm-4.855 0c-.489-5.291-.489-10.615 0-15.906.489 5.291.489 10.615 0 15.906zm15.526 0c-.489-5.291-.489-10.615 0-15.906a86.37 86.37 0 0 1 0 15.906zm-4.898 0c-.489-5.291-.489-10.615 0-15.906.508 5.29.508 10.616 0 15.906zm15.441 0c-.489-5.291-.489-10.615 0-15.906a86.37 86.37 0 0 1 0 15.906zm-4.827 0c-.489-5.291-.489-10.615 0-15.906.489 5.291.489 10.615 0 15.906zm15.454 0c-.489-5.291-.489-10.615 0-15.906.489 5.291.489 10.615 0 15.906zm-4.841 0c-.489-5.291-.489-10.615 0-15.906.489 5.291.489 10.615 0 15.906z"/><path d="M273.884 527.999c0 .212-19.858.367-44.346.367s-44.29-.2-44.29-.367 19.858-.367 44.36-.367l44.276.367z"/></g><path d="M179.814 544.286h88.297v16.033h-88.297z" class="D"/><g class="B"><path d="M188.466 560.436c-.489-5.291-.489-10.615 0-15.906.489 5.291.489 10.615 0 15.906zm-4.827 0c-.489-5.291-.489-10.615 0-15.906.489 5.291.489 10.615 0 15.906zm15.441 0c-.489-5.291-.489-10.615 0-15.906a86.36 86.36 0 0 1 0 15.906zm-4.841 0a86.36 86.36 0 0 1 0-15.906c.489 5.291.489 10.615 0 15.906zm15.44 0c-.489-5.291-.489-10.615 0-15.906.489 5.291.489 10.615 0 15.906zm-4.824 0a86.36 86.36 0 0 1 0-15.906c.489 5.291.489 10.615 0 15.906zm15.438 0c-.489-5.291-.489-10.615 0-15.906.489 5.291.489 10.615 0 15.906zm-4.827 0c-.489-5.291-.489-10.615 0-15.906.489 5.291.489 10.615 0 15.906zm15.441 0c-.508-5.29-.508-10.616 0-15.906a86.36 86.36 0 0 1 0 15.906zm-4.841 0a86.36 86.36 0 0 1 0-15.906c.489 5.291.489 10.615 0 15.906zm15.44 0c-.489-5.291-.489-10.615 0-15.906.489 5.291.489 10.615 0 15.906zm-4.827 0c-.489-5.291-.489-10.615 0-15.906.489 5.291.489 10.615 0 15.906zm15.441 0a86.36 86.36 0 0 1 0-15.906c.489 5.291.489 10.615 0 15.906zm-4.77 0c-.489-5.291-.489-10.615 0-15.906a86.37 86.37 0 0 1 0 15.906zm15.373 0c-.489-5.291-.489-10.615 0-15.906.489 5.291.489 10.615 0 15.906zm-4.83 0c-.489-5.291-.489-10.615 0-15.906.489 5.291.489 10.615 0 15.906z"/><path d="M268.111 544.286c0 .212-19.858.367-44.36.367s-44.346-.155-44.346-.367 19.858-.367 44.346-.367l44.36.367z"/></g><path d="M187.027 560.432h88.297v16.033h-88.297z" class="D"/><g class="B"><path d="M195.681 576.578c-.489-5.291-.489-10.615 0-15.906.489 5.291.489 10.615 0 15.906zm-4.787.001c-.492-5.305-.492-10.644 0-15.949.489 5.291.489 10.615 0 15.906zm15.398-.001c-.489-5.291-.489-10.615 0-15.906.489 5.291.489 10.615 0 15.906zm-4.824 0c-.489-5.291-.489-10.615 0-15.906a86.36 86.36 0 0 1 0 15.906zm15.424 0a86.36 86.36 0 0 1 0-15.906c.489 5.291.489 10.615 0 15.906zm-4.827.001c-.492-5.305-.492-10.644 0-15.949a86.36 86.36 0 0 1 0 15.906zm15.44-.001c-.489-5.291-.489-10.615 0-15.906.489 5.291.489 10.615 0 15.906zm-4.827 0a86.36 86.36 0 0 1 0-15.906 86.36 86.36 0 0 1 0 15.906zm15.441 0c-.489-5.291-.489-10.615 0-15.906.489 5.291.489 10.615 0 15.906zm-4.883.001a86.36 86.36 0 0 1 0-15.949c.489 5.291.489 10.615 0 15.906zm15.525 0a86.36 86.36 0 0 1 0-15.949c.489 5.291.489 10.615 0 15.906zm-4.869-.001c-.489-5.291-.489-10.615 0-15.906.489 5.291.489 10.615 0 15.906zm15.443 0c-.489-5.291-.489-10.615 0-15.906.489 5.291.489 10.615 0 15.906zm-4.83 0a86.36 86.36 0 0 1 0-15.906c.489 5.291.489 10.615 0 15.906zm15.427.001c-.492-5.305-.492-10.644 0-15.949a86.36 86.36 0 0 1 0 15.906zm-4.827-.001c-.489-5.291-.489-10.615 0-15.906a83.19 83.19 0 0 1 0 15.906z"/><path d="M275.324 560.432c0 .212-19.915.367-44.459.367s-44.459-.155-44.459-.367 19.9-.367 44.459-.367l44.459.367z"/></g><path d="M180.111 576.339h88.297v16.033h-88.297z" class="D"/><g class="B"><path d="M188.766 592.485c-.489-5.291-.489-10.615 0-15.906.489 5.291.489 10.615 0 15.906zm-4.83 0c-.489-5.291-.489-10.615 0-15.906.489 5.291.489 10.615 0 15.906zm15.426 0c-.489-5.291-.489-10.615 0-15.906a86.36 86.36 0 0 1 0 15.906zm-4.827 0a86.36 86.36 0 0 1 0-15.906 86.36 86.36 0 0 1 0 15.906zm15.441 0c-.489-5.291-.489-10.615 0-15.906.489 5.291.489 10.615 0 15.906zm-4.827 0c-.489-5.291-.489-10.615 0-15.906.489 5.291.489 10.615 0 15.906zm15.384 0c-.489-5.291-.489-10.615 0-15.906a86.36 86.36 0 0 1 0 15.906zm-4.77 0c-.489-5.291-.489-10.615 0-15.906.489 5.291.489 10.615 0 15.906zm15.426 0c-.489-5.291-.489-10.615 0-15.906.489 5.291.489 10.615 0 15.906zm-4.827 0c-.489-5.291-.489-10.615 0-15.906a86.36 86.36 0 0 1 0 15.906zm15.441 0c-.489-5.291-.489-10.615 0-15.906.489 5.291.489 10.615 0 15.906zm-4.827 0c-.489-5.291-.489-10.615 0-15.906a86.36 86.36 0 0 1 0 15.906zm15.443 0c-.489-5.291-.489-10.615 0-15.906a86.36 86.36 0 0 1 0 15.906zm-4.844 0c-.489-5.291-.489-10.615 0-15.906.508 5.29.508 10.616 0 15.906zm15.441 0a86.36 86.36 0 0 1 0-15.906 86.36 86.36 0 0 1 0 15.906zm-4.827 0a86.36 86.36 0 0 1 0-15.906c.489 5.291.489 10.615 0 15.906z"/><path d="M268.393 576.339c0 .2-19.858.367-44.346.367s-44.346-.169-44.346-.367 19.844-.367 44.346-.367l44.346.367z"/></g><path d="M188.96 592.598h88.297v16.033H188.96z" class="D"/><g class="B"><path d="M197.612 608.744a86.36 86.36 0 0 1 0-15.906c.489 5.291.489 10.615 0 15.906zm-4.827 0a86.36 86.36 0 0 1 0-15.906c.489 5.291.489 10.615 0 15.906zm15.427 0a86.36 86.36 0 0 1 0-15.906c.489 5.291.489 10.615 0 15.906zm-4.827 0a86.36 86.36 0 0 1 0-15.906c.489 5.291.489 10.615 0 15.906zm15.443 0a86.36 86.36 0 0 1 0-15.906c.489 5.291.489 10.615 0 15.906zm-4.83 0a86.36 86.36 0 0 1 0-15.906 86.36 86.36 0 0 1 0 15.906zm15.441 0a86.36 86.36 0 0 1 0-15.906c.489 5.291.489 10.615 0 15.906zm-4.841 0c-.489-5.291-.489-10.615 0-15.906a83.19 83.19 0 0 1 0 15.906zm15.44 0a86.36 86.36 0 0 1 0-15.906 86.36 86.36 0 0 1 0 15.906zm-4.826 0a86.36 86.36 0 0 1 0-15.906 86.36 86.36 0 0 1 0 15.906zm15.44 0a86.36 86.36 0 0 1 0-15.906c.489 5.291.489 10.615 0 15.906zm-4.827 0c-.489-5.291-.489-10.615 0-15.906a86.36 86.36 0 0 1 0 15.906zm15.441 0a86.36 86.36 0 0 1 0-15.906c.489 5.291.489 10.615 0 15.906zm-4.841 0c-.489-5.291-.489-10.615 0-15.906a86.36 86.36 0 0 1 0 15.906zm15.44 0a86.36 86.36 0 0 1 0-15.906 86.37 86.37 0 0 1 0 15.906zm-4.756 0a86.36 86.36 0 0 1 0-15.906c.489 5.291.489 10.615 0 15.906z"/><path d="M277.243 592.598c0 .212-19.858.367-44.346.367s-44.346-.155-44.346-.367 19.844-.367 44.346-.367l44.346.367z"/></g><g class="C"><path d="M187.027 560.432a134.63 134.63 0 0 0 40.789 2.964c13.549-.889 27.226-2.823 40.8-2.724z"/><path d="M187.831 544.469a135 135 0 0 0 40.775 2.978c13.549-.9 27.24-2.893 40.818-2.738z"/><path d="M192.093 576.494c13.366 3.056 27.12 4.061 40.789 2.978 13.549-.9 27.226-2.893 40.8-2.738z"/><path d="M188.636 592.513a135.5 135.5 0 0 0 40.789 2.964c13.549-.9 27.226-2.893 40.8-2.738z"/></g><g class="G"><path d="M187.213 538.965a26.45 26.45 0 0 1 0-8.779 26.45 26.45 0 0 1 0 8.779zm-5.564 17.134a30.39 30.39 0 0 1 0-9.414 30.39 30.39 0 0 1 0 9.414zm7.918 16.484a23.88 23.88 0 0 1 0-8.341c.489 2.759.489 5.582 0 8.341zm-8.13 15.217a18.62 18.62 0 0 1 0-7.495 19.32 19.32 0 0 1 0 7.495zm32.334-42.187c0 .2-6.521.367-14.566.367s-14.566-.169-14.566-.367a141.68 141.68 0 0 1 14.566-.367 141.68 141.68 0 0 1 14.566.367zm9.416-15.427a143.5 143.5 0 0 1-14.664.367 143.57 143.57 0 0 1-14.664-.367c0-.2 6.563-.367 14.664-.367s14.664.169 14.664.367zm14.132.229a31.74 31.74 0 0 1-9.626 0c3.19-.489 6.436-.489 9.626 0z"/></g><g class="C"><g transform="matrix(.97437 .224952 -.224952 .97437 222.390137 462.361095)"><path d="M.033 9.806h14.053a6.311 6.311 0 0 0-.8-2.014 4.867 4.867 0 0 0-1.558-1.558 7.967 7.967 0 0 0-2.477-.987 15.573 15.573 0 0 0-3.511-.34H0L.033 0h27.894v4.906h-8.969a8.36 8.36 0 0 1 1.423 2.184 9.141 9.141 0 0 1 .728 2.715h6.852v4.872h-7a10.61 10.61 0 0 1-3.191 5.655 13.226 13.226 0 0 1-6.349 3.233v.115a11.239 11.239 0 0 1 1.889 1.12 11.805 11.805 0 0 1 1.675 1.456 18.16 18.16 0 0 1 1.592 1.919l1.695 2.416 8.077 12.3h-7.956l-6.818-11.038-1.872-2.831A10.581 10.581 0 0 0 7.819 27a7.328 7.328 0 0 0-2.212-1.21 9.058 9.058 0 0 0-2.824-.4H.033v-5.207h5.683a10.308 10.308 0 0 0 2.892-.4 8.917 8.917 0 0 0 2.47-1.136 7.637 7.637 0 0 0 1.852-1.737 6.269 6.269 0 0 0 1.095-2.232H.033z"/></g><g transform="matrix(.933421 -.358432 .358432 .933421 612.098316 549.005378)"><path d="M.03 8.907H12.8a5.733 5.733 0 0 0-.724-1.829 4.421 4.421 0 0 0-1.416-1.416 7.237 7.237 0 0 0-2.25-.9 14.146 14.146 0 0 0-3.189-.309H0L.03 0h25.337v4.457H17.22a7.593 7.593 0 0 1 1.293 1.984 8.3 8.3 0 0 1 .661 2.466H25.4v4.426h-6.356a9.638 9.638 0 0 1-2.9 5.136 12.014 12.014 0 0 1-5.767 2.936v.1a10.21 10.21 0 0 1 1.712 1.014 10.723 10.723 0 0 1 1.521 1.323 16.5 16.5 0 0 1 1.446 1.743l1.539 2.194 7.337 11.169h-7.225l-6.193-10.02-1.7-2.571a9.611 9.611 0 0 0-1.714-1.83 6.656 6.656 0 0 0-2.009-1.1 8.228 8.228 0 0 0-2.565-.365H.03v-4.729h5.162a9.363 9.363 0 0 0 2.627-.365 8.1 8.1 0 0 0 2.244-1.032 6.938 6.938 0 0 0 1.682-1.576 5.7 5.7 0 0 0 .995-2.027H.03z"/></g></g></g></svg>